%TF.GenerationSoftware,KiCad,Pcbnew,(5.1.6)-1*%
%TF.CreationDate,2020-12-02T11:33:45-05:00*%
%TF.ProjectId,HP_classic,48505f63-6c61-4737-9369-632e6b696361,2*%
%TF.SameCoordinates,Original*%
%TF.FileFunction,Copper,L2,Bot*%
%TF.FilePolarity,Positive*%
%FSLAX46Y46*%
G04 Gerber Fmt 4.6, Leading zero omitted, Abs format (unit mm)*
G04 Created by KiCad (PCBNEW (5.1.6)-1) date 2020-12-02 11:33:45*
%MOMM*%
%LPD*%
G01*
G04 APERTURE LIST*
%TA.AperFunction,SMDPad,CuDef*%
%ADD10R,1.200000X1.200000*%
%TD*%
%TA.AperFunction,SMDPad,CuDef*%
%ADD11R,1.300000X0.650000*%
%TD*%
%TA.AperFunction,ComponentPad*%
%ADD12R,1.700000X1.700000*%
%TD*%
%TA.AperFunction,ComponentPad*%
%ADD13O,1.700000X1.700000*%
%TD*%
%TA.AperFunction,ComponentPad*%
%ADD14O,1.100000X1.800000*%
%TD*%
%TA.AperFunction,ComponentPad*%
%ADD15O,1.100000X2.200000*%
%TD*%
%TA.AperFunction,ComponentPad*%
%ADD16O,1.200000X1.750000*%
%TD*%
%TA.AperFunction,SMDPad,CuDef*%
%ADD17C,0.100000*%
%TD*%
%TA.AperFunction,ViaPad*%
%ADD18C,1.000000*%
%TD*%
%TA.AperFunction,Conductor*%
%ADD19C,0.700000*%
%TD*%
%TA.AperFunction,Conductor*%
%ADD20C,0.500000*%
%TD*%
%TA.AperFunction,Conductor*%
%ADD21C,0.350000*%
%TD*%
%TA.AperFunction,Conductor*%
%ADD22C,1.250000*%
%TD*%
%TA.AperFunction,Conductor*%
%ADD23C,1.000000*%
%TD*%
%TA.AperFunction,Conductor*%
%ADD24C,0.254000*%
%TD*%
G04 APERTURE END LIST*
D10*
%TO.P,Z1,1*%
%TO.N,/POS*%
X160750000Y-126650000D03*
%TO.P,Z1,2*%
%TO.N,GND*%
X160750000Y-123350000D03*
%TD*%
D11*
%TO.P,U2,5*%
%TO.N,/POS*%
X157300000Y-124950000D03*
%TO.P,U2,4*%
%TO.N,Net-(U2-Pad4)*%
X157300000Y-123050000D03*
%TO.P,U2,3*%
%TO.N,Net-(JP2-Pad2)*%
X155100000Y-123050000D03*
%TO.P,U2,2*%
%TO.N,GND*%
X155100000Y-124000000D03*
%TO.P,U2,1*%
%TO.N,/VBAT*%
X155100000Y-124950000D03*
%TD*%
D12*
%TO.P,J3,1*%
%TO.N,/VBAT*%
X152300000Y-141200000D03*
D13*
%TO.P,J3,2*%
%TO.N,GND*%
X154840000Y-141200000D03*
%TD*%
D14*
%TO.P,J1,6*%
%TO.N,GND*%
X154575000Y-107200000D03*
X154575000Y-112800000D03*
D15*
X152425000Y-110000000D03*
%TD*%
%TO.P,J2,1*%
%TO.N,GND*%
%TA.AperFunction,ComponentPad*%
G36*
G01*
X155200000Y-142124999D02*
X155200000Y-143375001D01*
G75*
G02*
X154950001Y-143625000I-249999J0D01*
G01*
X154249999Y-143625000D01*
G75*
G02*
X154000000Y-143375001I0J249999D01*
G01*
X154000000Y-142124999D01*
G75*
G02*
X154249999Y-141875000I249999J0D01*
G01*
X154950001Y-141875000D01*
G75*
G02*
X155200000Y-142124999I0J-249999D01*
G01*
G37*
%TD.AperFunction*%
D16*
%TO.P,J2,2*%
%TO.N,/VBAT*%
X152600000Y-142750000D03*
%TD*%
%TA.AperFunction,SMDPad,CuDef*%
D17*
%TO.P,JP1,1*%
%TO.N,/VBAT*%
G36*
X159100000Y-139550000D02*
G01*
X158600000Y-139550000D01*
X158600000Y-139549398D01*
X158575466Y-139549398D01*
X158526635Y-139544588D01*
X158478510Y-139535016D01*
X158431555Y-139520772D01*
X158386222Y-139501995D01*
X158342949Y-139478864D01*
X158302150Y-139451604D01*
X158264221Y-139420476D01*
X158229524Y-139385779D01*
X158198396Y-139347850D01*
X158171136Y-139307051D01*
X158148005Y-139263778D01*
X158129228Y-139218445D01*
X158114984Y-139171490D01*
X158105412Y-139123365D01*
X158100602Y-139074534D01*
X158100602Y-139050000D01*
X158100000Y-139050000D01*
X158100000Y-138550000D01*
X158100602Y-138550000D01*
X158100602Y-138525466D01*
X158105412Y-138476635D01*
X158114984Y-138428510D01*
X158129228Y-138381555D01*
X158148005Y-138336222D01*
X158171136Y-138292949D01*
X158198396Y-138252150D01*
X158229524Y-138214221D01*
X158264221Y-138179524D01*
X158302150Y-138148396D01*
X158342949Y-138121136D01*
X158386222Y-138098005D01*
X158431555Y-138079228D01*
X158478510Y-138064984D01*
X158526635Y-138055412D01*
X158575466Y-138050602D01*
X158600000Y-138050602D01*
X158600000Y-138050000D01*
X159100000Y-138050000D01*
X159100000Y-139550000D01*
G37*
%TD.AperFunction*%
%TA.AperFunction,SMDPad,CuDef*%
%TO.P,JP1,2*%
%TO.N,/POS*%
G36*
X159900000Y-138050602D02*
G01*
X159924534Y-138050602D01*
X159973365Y-138055412D01*
X160021490Y-138064984D01*
X160068445Y-138079228D01*
X160113778Y-138098005D01*
X160157051Y-138121136D01*
X160197850Y-138148396D01*
X160235779Y-138179524D01*
X160270476Y-138214221D01*
X160301604Y-138252150D01*
X160328864Y-138292949D01*
X160351995Y-138336222D01*
X160370772Y-138381555D01*
X160385016Y-138428510D01*
X160394588Y-138476635D01*
X160399398Y-138525466D01*
X160399398Y-138550000D01*
X160400000Y-138550000D01*
X160400000Y-139050000D01*
X160399398Y-139050000D01*
X160399398Y-139074534D01*
X160394588Y-139123365D01*
X160385016Y-139171490D01*
X160370772Y-139218445D01*
X160351995Y-139263778D01*
X160328864Y-139307051D01*
X160301604Y-139347850D01*
X160270476Y-139385779D01*
X160235779Y-139420476D01*
X160197850Y-139451604D01*
X160157051Y-139478864D01*
X160113778Y-139501995D01*
X160068445Y-139520772D01*
X160021490Y-139535016D01*
X159973365Y-139544588D01*
X159924534Y-139549398D01*
X159900000Y-139549398D01*
X159900000Y-139550000D01*
X159400000Y-139550000D01*
X159400000Y-138050000D01*
X159900000Y-138050000D01*
X159900000Y-138050602D01*
G37*
%TD.AperFunction*%
%TD*%
%TA.AperFunction,SMDPad,CuDef*%
%TO.P,JP2,2*%
%TO.N,Net-(JP2-Pad2)*%
G36*
X151950602Y-124100000D02*
G01*
X151950602Y-124075466D01*
X151955412Y-124026635D01*
X151964984Y-123978510D01*
X151979228Y-123931555D01*
X151998005Y-123886222D01*
X152021136Y-123842949D01*
X152048396Y-123802150D01*
X152079524Y-123764221D01*
X152114221Y-123729524D01*
X152152150Y-123698396D01*
X152192949Y-123671136D01*
X152236222Y-123648005D01*
X152281555Y-123629228D01*
X152328510Y-123614984D01*
X152376635Y-123605412D01*
X152425466Y-123600602D01*
X152450000Y-123600602D01*
X152450000Y-123600000D01*
X152950000Y-123600000D01*
X152950000Y-123600602D01*
X152974534Y-123600602D01*
X153023365Y-123605412D01*
X153071490Y-123614984D01*
X153118445Y-123629228D01*
X153163778Y-123648005D01*
X153207051Y-123671136D01*
X153247850Y-123698396D01*
X153285779Y-123729524D01*
X153320476Y-123764221D01*
X153351604Y-123802150D01*
X153378864Y-123842949D01*
X153401995Y-123886222D01*
X153420772Y-123931555D01*
X153435016Y-123978510D01*
X153444588Y-124026635D01*
X153449398Y-124075466D01*
X153449398Y-124100000D01*
X153450000Y-124100000D01*
X153450000Y-124600000D01*
X151950000Y-124600000D01*
X151950000Y-124100000D01*
X151950602Y-124100000D01*
G37*
%TD.AperFunction*%
%TA.AperFunction,SMDPad,CuDef*%
%TO.P,JP2,1*%
%TO.N,/VBAT*%
G36*
X153450000Y-124900000D02*
G01*
X153450000Y-125400000D01*
X153449398Y-125400000D01*
X153449398Y-125424534D01*
X153444588Y-125473365D01*
X153435016Y-125521490D01*
X153420772Y-125568445D01*
X153401995Y-125613778D01*
X153378864Y-125657051D01*
X153351604Y-125697850D01*
X153320476Y-125735779D01*
X153285779Y-125770476D01*
X153247850Y-125801604D01*
X153207051Y-125828864D01*
X153163778Y-125851995D01*
X153118445Y-125870772D01*
X153071490Y-125885016D01*
X153023365Y-125894588D01*
X152974534Y-125899398D01*
X152950000Y-125899398D01*
X152950000Y-125900000D01*
X152450000Y-125900000D01*
X152450000Y-125899398D01*
X152425466Y-125899398D01*
X152376635Y-125894588D01*
X152328510Y-125885016D01*
X152281555Y-125870772D01*
X152236222Y-125851995D01*
X152192949Y-125828864D01*
X152152150Y-125801604D01*
X152114221Y-125770476D01*
X152079524Y-125735779D01*
X152048396Y-125697850D01*
X152021136Y-125657051D01*
X151998005Y-125613778D01*
X151979228Y-125568445D01*
X151964984Y-125521490D01*
X151955412Y-125473365D01*
X151950602Y-125424534D01*
X151950602Y-125400000D01*
X151950000Y-125400000D01*
X151950000Y-124900000D01*
X153450000Y-124900000D01*
G37*
%TD.AperFunction*%
%TD*%
D18*
%TO.N,/VBAT*%
X154750000Y-127000000D03*
X155500000Y-127000000D03*
X156250000Y-127000000D03*
%TD*%
D19*
%TO.N,GND*%
X159700000Y-121700000D02*
X159700000Y-123050000D01*
D20*
X156200000Y-123400000D02*
X156200000Y-121500000D01*
D21*
X155000000Y-123950000D02*
X155100000Y-124050000D01*
D20*
X155100000Y-124000000D02*
X155900000Y-124000000D01*
X156200000Y-123700000D02*
X156200000Y-123400000D01*
X155900000Y-124000000D02*
X156200000Y-123700000D01*
D22*
X154840000Y-141200000D02*
X154600000Y-142750000D01*
%TO.N,/VBAT*%
X152300000Y-141200000D02*
X152300000Y-140550000D01*
D23*
X152300000Y-141200000D02*
X152600000Y-142750000D01*
D19*
X155100000Y-125000000D02*
X155100000Y-127000000D01*
D21*
X152700000Y-125500000D02*
X152700000Y-127000000D01*
D19*
X152300000Y-138750000D02*
X152300000Y-141200000D01*
D23*
X152500000Y-127000000D02*
X156250000Y-127000000D01*
X151750000Y-127000000D02*
X152500000Y-127000000D01*
X152300000Y-140550000D02*
X152300000Y-138800000D01*
X152300000Y-138800000D02*
X151300000Y-138800000D01*
X150500000Y-128250000D02*
X151750000Y-127000000D01*
X151300000Y-138800000D02*
X150500000Y-138000000D01*
X150500000Y-138000000D02*
X150500000Y-128250000D01*
X156250000Y-138750000D02*
X152300000Y-138750000D01*
X158500000Y-138750000D02*
X156250000Y-138750000D01*
D19*
%TO.N,/POS*%
X158100000Y-126600000D02*
X159000000Y-126600000D01*
X157300000Y-125100000D02*
X157300000Y-125800000D01*
X157300000Y-125800000D02*
X158100000Y-126600000D01*
D21*
X160700000Y-126600000D02*
X160750000Y-126650000D01*
X159000000Y-126600000D02*
X160700000Y-126600000D01*
X160750000Y-126650000D02*
X160750000Y-129000000D01*
D23*
X160750000Y-138800000D02*
X161500000Y-138050000D01*
X159900000Y-138800000D02*
X160750000Y-138800000D01*
X161500000Y-138000000D02*
X161500000Y-136500000D01*
D21*
%TO.N,Net-(JP2-Pad2)*%
X152750000Y-124250000D02*
X152700000Y-124250000D01*
X155100000Y-123050000D02*
X153950000Y-123050000D01*
X153950000Y-123050000D02*
X152750000Y-124250000D01*
%TD*%
D24*
%TO.N,/POS*%
G36*
X171873000Y-136873000D02*
G01*
X152127000Y-136873000D01*
X152127000Y-128228132D01*
X152220132Y-128135000D01*
X156361788Y-128135000D01*
X156402007Y-128127000D01*
X171873000Y-128127000D01*
X171873000Y-136873000D01*
G37*
X171873000Y-136873000D02*
X152127000Y-136873000D01*
X152127000Y-128228132D01*
X152220132Y-128135000D01*
X156361788Y-128135000D01*
X156402007Y-128127000D01*
X171873000Y-128127000D01*
X171873000Y-136873000D01*
%TO.N,GND*%
G36*
X153390000Y-113277000D02*
G01*
X153437546Y-113505742D01*
X153528804Y-113720813D01*
X153660266Y-113913948D01*
X153826881Y-114077725D01*
X154022246Y-114205850D01*
X154238853Y-114293399D01*
X154265256Y-114293803D01*
X154448000Y-114168361D01*
X154448000Y-113127000D01*
X154702000Y-113127000D01*
X154702000Y-114168361D01*
X154884744Y-114293803D01*
X154911147Y-114293399D01*
X155127754Y-114205850D01*
X155323119Y-114077725D01*
X155489734Y-113913948D01*
X155621196Y-113720813D01*
X155712454Y-113505742D01*
X155760000Y-113277000D01*
X155760000Y-113127000D01*
X171873000Y-113127000D01*
X171873000Y-121873000D01*
X152127000Y-121873000D01*
X152127000Y-113127000D01*
X153390000Y-113127000D01*
X153390000Y-113277000D01*
G37*
X153390000Y-113277000D02*
X153437546Y-113505742D01*
X153528804Y-113720813D01*
X153660266Y-113913948D01*
X153826881Y-114077725D01*
X154022246Y-114205850D01*
X154238853Y-114293399D01*
X154265256Y-114293803D01*
X154448000Y-114168361D01*
X154448000Y-113127000D01*
X154702000Y-113127000D01*
X154702000Y-114168361D01*
X154884744Y-114293803D01*
X154911147Y-114293399D01*
X155127754Y-114205850D01*
X155323119Y-114077725D01*
X155489734Y-113913948D01*
X155621196Y-113720813D01*
X155712454Y-113505742D01*
X155760000Y-113277000D01*
X155760000Y-113127000D01*
X171873000Y-113127000D01*
X171873000Y-121873000D01*
X152127000Y-121873000D01*
X152127000Y-113127000D01*
X153390000Y-113127000D01*
X153390000Y-113277000D01*
G36*
X153688335Y-106203324D02*
G01*
X153579212Y-106388729D01*
X153508356Y-106591861D01*
X153478491Y-106804913D01*
X153616688Y-106977000D01*
X154352000Y-106977000D01*
X154352000Y-106957000D01*
X154798000Y-106957000D01*
X154798000Y-106977000D01*
X155533312Y-106977000D01*
X155671509Y-106804913D01*
X155641644Y-106591861D01*
X155570788Y-106388729D01*
X155461665Y-106203324D01*
X155438187Y-106177000D01*
X155947394Y-106177000D01*
X156373000Y-106602606D01*
X156373000Y-114023000D01*
X155231253Y-114023000D01*
X155318468Y-113957230D01*
X155461665Y-113796676D01*
X155570788Y-113611271D01*
X155641644Y-113408139D01*
X155671509Y-113195087D01*
X155533312Y-113023000D01*
X154798000Y-113023000D01*
X154798000Y-113043000D01*
X154352000Y-113043000D01*
X154352000Y-113023000D01*
X153616688Y-113023000D01*
X153478491Y-113195087D01*
X153508356Y-113408139D01*
X153579212Y-113611271D01*
X153688335Y-113796676D01*
X153831532Y-113957230D01*
X153918747Y-114023000D01*
X152127000Y-114023000D01*
X152127000Y-112404913D01*
X153478491Y-112404913D01*
X153616688Y-112577000D01*
X154352000Y-112577000D01*
X154352000Y-111531431D01*
X154798000Y-111531431D01*
X154798000Y-112577000D01*
X155533312Y-112577000D01*
X155671509Y-112404913D01*
X155641644Y-112191861D01*
X155570788Y-111988729D01*
X155461665Y-111803324D01*
X155318468Y-111642770D01*
X155146700Y-111513237D01*
X154960083Y-111444197D01*
X154798000Y-111531431D01*
X154352000Y-111531431D01*
X154189917Y-111444197D01*
X154003300Y-111513237D01*
X153831532Y-111642770D01*
X153688335Y-111803324D01*
X153579212Y-111988729D01*
X153508356Y-112191861D01*
X153478491Y-112404913D01*
X152127000Y-112404913D01*
X152127000Y-111508934D01*
X152202000Y-111468569D01*
X152202000Y-110223000D01*
X152648000Y-110223000D01*
X152648000Y-111468569D01*
X152810083Y-111555803D01*
X153028870Y-111469239D01*
X153196601Y-111333767D01*
X153334680Y-111168175D01*
X153437801Y-110978827D01*
X153502000Y-110773000D01*
X153502000Y-110223000D01*
X152648000Y-110223000D01*
X152202000Y-110223000D01*
X152182000Y-110223000D01*
X152182000Y-109777000D01*
X152202000Y-109777000D01*
X152202000Y-108531431D01*
X152648000Y-108531431D01*
X152648000Y-109777000D01*
X153502000Y-109777000D01*
X153502000Y-109227000D01*
X153437801Y-109021173D01*
X153334680Y-108831825D01*
X153196601Y-108666233D01*
X153028870Y-108530761D01*
X152810083Y-108444197D01*
X152648000Y-108531431D01*
X152202000Y-108531431D01*
X152127000Y-108491066D01*
X152127000Y-107595087D01*
X153478491Y-107595087D01*
X153508356Y-107808139D01*
X153579212Y-108011271D01*
X153688335Y-108196676D01*
X153831532Y-108357230D01*
X154003300Y-108486763D01*
X154189917Y-108555803D01*
X154352000Y-108468569D01*
X154352000Y-107423000D01*
X154798000Y-107423000D01*
X154798000Y-108468569D01*
X154960083Y-108555803D01*
X155146700Y-108486763D01*
X155318468Y-108357230D01*
X155461665Y-108196676D01*
X155570788Y-108011271D01*
X155641644Y-107808139D01*
X155671509Y-107595087D01*
X155533312Y-107423000D01*
X154798000Y-107423000D01*
X154352000Y-107423000D01*
X153616688Y-107423000D01*
X153478491Y-107595087D01*
X152127000Y-107595087D01*
X152127000Y-106602606D01*
X152552606Y-106177000D01*
X153711813Y-106177000D01*
X153688335Y-106203324D01*
G37*
X153688335Y-106203324D02*
X153579212Y-106388729D01*
X153508356Y-106591861D01*
X153478491Y-106804913D01*
X153616688Y-106977000D01*
X154352000Y-106977000D01*
X154352000Y-106957000D01*
X154798000Y-106957000D01*
X154798000Y-106977000D01*
X155533312Y-106977000D01*
X155671509Y-106804913D01*
X155641644Y-106591861D01*
X155570788Y-106388729D01*
X155461665Y-106203324D01*
X155438187Y-106177000D01*
X155947394Y-106177000D01*
X156373000Y-106602606D01*
X156373000Y-114023000D01*
X155231253Y-114023000D01*
X155318468Y-113957230D01*
X155461665Y-113796676D01*
X155570788Y-113611271D01*
X155641644Y-113408139D01*
X155671509Y-113195087D01*
X155533312Y-113023000D01*
X154798000Y-113023000D01*
X154798000Y-113043000D01*
X154352000Y-113043000D01*
X154352000Y-113023000D01*
X153616688Y-113023000D01*
X153478491Y-113195087D01*
X153508356Y-113408139D01*
X153579212Y-113611271D01*
X153688335Y-113796676D01*
X153831532Y-113957230D01*
X153918747Y-114023000D01*
X152127000Y-114023000D01*
X152127000Y-112404913D01*
X153478491Y-112404913D01*
X153616688Y-112577000D01*
X154352000Y-112577000D01*
X154352000Y-111531431D01*
X154798000Y-111531431D01*
X154798000Y-112577000D01*
X155533312Y-112577000D01*
X155671509Y-112404913D01*
X155641644Y-112191861D01*
X155570788Y-111988729D01*
X155461665Y-111803324D01*
X155318468Y-111642770D01*
X155146700Y-111513237D01*
X154960083Y-111444197D01*
X154798000Y-111531431D01*
X154352000Y-111531431D01*
X154189917Y-111444197D01*
X154003300Y-111513237D01*
X153831532Y-111642770D01*
X153688335Y-111803324D01*
X153579212Y-111988729D01*
X153508356Y-112191861D01*
X153478491Y-112404913D01*
X152127000Y-112404913D01*
X152127000Y-111508934D01*
X152202000Y-111468569D01*
X152202000Y-110223000D01*
X152648000Y-110223000D01*
X152648000Y-111468569D01*
X152810083Y-111555803D01*
X153028870Y-111469239D01*
X153196601Y-111333767D01*
X153334680Y-111168175D01*
X153437801Y-110978827D01*
X153502000Y-110773000D01*
X153502000Y-110223000D01*
X152648000Y-110223000D01*
X152202000Y-110223000D01*
X152182000Y-110223000D01*
X152182000Y-109777000D01*
X152202000Y-109777000D01*
X152202000Y-108531431D01*
X152648000Y-108531431D01*
X152648000Y-109777000D01*
X153502000Y-109777000D01*
X153502000Y-109227000D01*
X153437801Y-109021173D01*
X153334680Y-108831825D01*
X153196601Y-108666233D01*
X153028870Y-108530761D01*
X152810083Y-108444197D01*
X152648000Y-108531431D01*
X152202000Y-108531431D01*
X152127000Y-108491066D01*
X152127000Y-107595087D01*
X153478491Y-107595087D01*
X153508356Y-107808139D01*
X153579212Y-108011271D01*
X153688335Y-108196676D01*
X153831532Y-108357230D01*
X154003300Y-108486763D01*
X154189917Y-108555803D01*
X154352000Y-108468569D01*
X154352000Y-107423000D01*
X154798000Y-107423000D01*
X154798000Y-108468569D01*
X154960083Y-108555803D01*
X155146700Y-108486763D01*
X155318468Y-108357230D01*
X155461665Y-108196676D01*
X155570788Y-108011271D01*
X155641644Y-107808139D01*
X155671509Y-107595087D01*
X155533312Y-107423000D01*
X154798000Y-107423000D01*
X154352000Y-107423000D01*
X153616688Y-107423000D01*
X153478491Y-107595087D01*
X152127000Y-107595087D01*
X152127000Y-106602606D01*
X152552606Y-106177000D01*
X153711813Y-106177000D01*
X153688335Y-106203324D01*
%TO.N,/POS*%
G36*
X162873000Y-125802606D02*
G01*
X162873000Y-128123000D01*
X158527000Y-128123000D01*
X158527000Y-127250000D01*
X159771176Y-127250000D01*
X159778455Y-127323905D01*
X159800012Y-127394970D01*
X159835019Y-127460463D01*
X159882131Y-127517869D01*
X159939537Y-127564981D01*
X160005030Y-127599988D01*
X160076095Y-127621545D01*
X160150000Y-127628824D01*
X160432750Y-127627000D01*
X160527000Y-127532750D01*
X160527000Y-126873000D01*
X160973000Y-126873000D01*
X160973000Y-127532750D01*
X161067250Y-127627000D01*
X161350000Y-127628824D01*
X161423905Y-127621545D01*
X161494970Y-127599988D01*
X161560463Y-127564981D01*
X161617869Y-127517869D01*
X161664981Y-127460463D01*
X161699988Y-127394970D01*
X161721545Y-127323905D01*
X161728824Y-127250000D01*
X161727000Y-126967250D01*
X161632750Y-126873000D01*
X160973000Y-126873000D01*
X160527000Y-126873000D01*
X159867250Y-126873000D01*
X159773000Y-126967250D01*
X159771176Y-127250000D01*
X158527000Y-127250000D01*
X158527000Y-126050000D01*
X159771176Y-126050000D01*
X159773000Y-126332750D01*
X159867250Y-126427000D01*
X160527000Y-126427000D01*
X160527000Y-125767250D01*
X160973000Y-125767250D01*
X160973000Y-126427000D01*
X161632750Y-126427000D01*
X161727000Y-126332750D01*
X161728824Y-126050000D01*
X161721545Y-125976095D01*
X161699988Y-125905030D01*
X161664981Y-125839537D01*
X161617869Y-125782131D01*
X161560463Y-125735019D01*
X161494970Y-125700012D01*
X161423905Y-125678455D01*
X161350000Y-125671176D01*
X161067250Y-125673000D01*
X160973000Y-125767250D01*
X160527000Y-125767250D01*
X160432750Y-125673000D01*
X160150000Y-125671176D01*
X160076095Y-125678455D01*
X160005030Y-125700012D01*
X159939537Y-125735019D01*
X159882131Y-125782131D01*
X159835019Y-125839537D01*
X159800012Y-125905030D01*
X159778455Y-125976095D01*
X159771176Y-126050000D01*
X158527000Y-126050000D01*
X158527000Y-125802606D01*
X158952606Y-125377000D01*
X162447394Y-125377000D01*
X162873000Y-125802606D01*
G37*
X162873000Y-125802606D02*
X162873000Y-128123000D01*
X158527000Y-128123000D01*
X158527000Y-127250000D01*
X159771176Y-127250000D01*
X159778455Y-127323905D01*
X159800012Y-127394970D01*
X159835019Y-127460463D01*
X159882131Y-127517869D01*
X159939537Y-127564981D01*
X160005030Y-127599988D01*
X160076095Y-127621545D01*
X160150000Y-127628824D01*
X160432750Y-127627000D01*
X160527000Y-127532750D01*
X160527000Y-126873000D01*
X160973000Y-126873000D01*
X160973000Y-127532750D01*
X161067250Y-127627000D01*
X161350000Y-127628824D01*
X161423905Y-127621545D01*
X161494970Y-127599988D01*
X161560463Y-127564981D01*
X161617869Y-127517869D01*
X161664981Y-127460463D01*
X161699988Y-127394970D01*
X161721545Y-127323905D01*
X161728824Y-127250000D01*
X161727000Y-126967250D01*
X161632750Y-126873000D01*
X160973000Y-126873000D01*
X160527000Y-126873000D01*
X159867250Y-126873000D01*
X159773000Y-126967250D01*
X159771176Y-127250000D01*
X158527000Y-127250000D01*
X158527000Y-126050000D01*
X159771176Y-126050000D01*
X159773000Y-126332750D01*
X159867250Y-126427000D01*
X160527000Y-126427000D01*
X160527000Y-125767250D01*
X160973000Y-125767250D01*
X160973000Y-126427000D01*
X161632750Y-126427000D01*
X161727000Y-126332750D01*
X161728824Y-126050000D01*
X161721545Y-125976095D01*
X161699988Y-125905030D01*
X161664981Y-125839537D01*
X161617869Y-125782131D01*
X161560463Y-125735019D01*
X161494970Y-125700012D01*
X161423905Y-125678455D01*
X161350000Y-125671176D01*
X161067250Y-125673000D01*
X160973000Y-125767250D01*
X160527000Y-125767250D01*
X160432750Y-125673000D01*
X160150000Y-125671176D01*
X160076095Y-125678455D01*
X160005030Y-125700012D01*
X159939537Y-125735019D01*
X159882131Y-125782131D01*
X159835019Y-125839537D01*
X159800012Y-125905030D01*
X159778455Y-125976095D01*
X159771176Y-126050000D01*
X158527000Y-126050000D01*
X158527000Y-125802606D01*
X158952606Y-125377000D01*
X162447394Y-125377000D01*
X162873000Y-125802606D01*
%TO.N,GND*%
G36*
X162873000Y-124197394D02*
G01*
X162447394Y-124623000D01*
X158952606Y-124623000D01*
X158527000Y-124197394D01*
X158527000Y-123950000D01*
X159771176Y-123950000D01*
X159778455Y-124023905D01*
X159800012Y-124094970D01*
X159835019Y-124160463D01*
X159882131Y-124217869D01*
X159939537Y-124264981D01*
X160005030Y-124299988D01*
X160076095Y-124321545D01*
X160150000Y-124328824D01*
X160432750Y-124327000D01*
X160527000Y-124232750D01*
X160527000Y-123573000D01*
X160973000Y-123573000D01*
X160973000Y-124232750D01*
X161067250Y-124327000D01*
X161350000Y-124328824D01*
X161423905Y-124321545D01*
X161494970Y-124299988D01*
X161560463Y-124264981D01*
X161617869Y-124217869D01*
X161664981Y-124160463D01*
X161699988Y-124094970D01*
X161721545Y-124023905D01*
X161728824Y-123950000D01*
X161727000Y-123667250D01*
X161632750Y-123573000D01*
X160973000Y-123573000D01*
X160527000Y-123573000D01*
X159867250Y-123573000D01*
X159773000Y-123667250D01*
X159771176Y-123950000D01*
X158527000Y-123950000D01*
X158527000Y-122750000D01*
X159771176Y-122750000D01*
X159773000Y-123032750D01*
X159867250Y-123127000D01*
X160527000Y-123127000D01*
X160527000Y-122467250D01*
X160973000Y-122467250D01*
X160973000Y-123127000D01*
X161632750Y-123127000D01*
X161727000Y-123032750D01*
X161728824Y-122750000D01*
X161721545Y-122676095D01*
X161699988Y-122605030D01*
X161664981Y-122539537D01*
X161617869Y-122482131D01*
X161560463Y-122435019D01*
X161494970Y-122400012D01*
X161423905Y-122378455D01*
X161350000Y-122371176D01*
X161067250Y-122373000D01*
X160973000Y-122467250D01*
X160527000Y-122467250D01*
X160432750Y-122373000D01*
X160150000Y-122371176D01*
X160076095Y-122378455D01*
X160005030Y-122400012D01*
X159939537Y-122435019D01*
X159882131Y-122482131D01*
X159835019Y-122539537D01*
X159800012Y-122605030D01*
X159778455Y-122676095D01*
X159771176Y-122750000D01*
X158527000Y-122750000D01*
X158527000Y-121877000D01*
X162873000Y-121877000D01*
X162873000Y-124197394D01*
G37*
X162873000Y-124197394D02*
X162447394Y-124623000D01*
X158952606Y-124623000D01*
X158527000Y-124197394D01*
X158527000Y-123950000D01*
X159771176Y-123950000D01*
X159778455Y-124023905D01*
X159800012Y-124094970D01*
X159835019Y-124160463D01*
X159882131Y-124217869D01*
X159939537Y-124264981D01*
X160005030Y-124299988D01*
X160076095Y-124321545D01*
X160150000Y-124328824D01*
X160432750Y-124327000D01*
X160527000Y-124232750D01*
X160527000Y-123573000D01*
X160973000Y-123573000D01*
X160973000Y-124232750D01*
X161067250Y-124327000D01*
X161350000Y-124328824D01*
X161423905Y-124321545D01*
X161494970Y-124299988D01*
X161560463Y-124264981D01*
X161617869Y-124217869D01*
X161664981Y-124160463D01*
X161699988Y-124094970D01*
X161721545Y-124023905D01*
X161728824Y-123950000D01*
X161727000Y-123667250D01*
X161632750Y-123573000D01*
X160973000Y-123573000D01*
X160527000Y-123573000D01*
X159867250Y-123573000D01*
X159773000Y-123667250D01*
X159771176Y-123950000D01*
X158527000Y-123950000D01*
X158527000Y-122750000D01*
X159771176Y-122750000D01*
X159773000Y-123032750D01*
X159867250Y-123127000D01*
X160527000Y-123127000D01*
X160527000Y-122467250D01*
X160973000Y-122467250D01*
X160973000Y-123127000D01*
X161632750Y-123127000D01*
X161727000Y-123032750D01*
X161728824Y-122750000D01*
X161721545Y-122676095D01*
X161699988Y-122605030D01*
X161664981Y-122539537D01*
X161617869Y-122482131D01*
X161560463Y-122435019D01*
X161494970Y-122400012D01*
X161423905Y-122378455D01*
X161350000Y-122371176D01*
X161067250Y-122373000D01*
X160973000Y-122467250D01*
X160527000Y-122467250D01*
X160432750Y-122373000D01*
X160150000Y-122371176D01*
X160076095Y-122378455D01*
X160005030Y-122400012D01*
X159939537Y-122435019D01*
X159882131Y-122482131D01*
X159835019Y-122539537D01*
X159800012Y-122605030D01*
X159778455Y-122676095D01*
X159771176Y-122750000D01*
X158527000Y-122750000D01*
X158527000Y-121877000D01*
X162873000Y-121877000D01*
X162873000Y-124197394D01*
%TD*%
M02*
