%TF.GenerationSoftware,KiCad,Pcbnew,(5.1.6)-1*%
%TF.CreationDate,2020-11-11T17:37:01-05:00*%
%TF.ProjectId,HP_classic,48505f63-6c61-4737-9369-632e6b696361,rev?*%
%TF.SameCoordinates,Original*%
%TF.FileFunction,Soldermask,Top*%
%TF.FilePolarity,Negative*%
%FSLAX46Y46*%
G04 Gerber Fmt 4.6, Leading zero omitted, Abs format (unit mm)*
G04 Created by KiCad (PCBNEW (5.1.6)-1) date 2020-11-11 17:37:01*
%MOMM*%
%LPD*%
G01*
G04 APERTURE LIST*
%ADD10R,1.800000X1.800000*%
%ADD11O,1.800000X1.800000*%
%ADD12R,1.160000X0.750000*%
%ADD13R,1.600000X0.550000*%
%ADD14O,1.200000X1.900000*%
%ADD15O,1.200000X2.300000*%
%ADD16O,1.300000X1.850000*%
%ADD17C,1.600000*%
%ADD18C,2.100000*%
G04 APERTURE END LIST*
D10*
%TO.C,J3*%
X152300000Y-141200000D03*
D11*
X154840000Y-141200000D03*
%TD*%
%TO.C,C1*%
G36*
G01*
X151637500Y-115218750D02*
X151637500Y-116181250D01*
G75*
G02*
X151368750Y-116450000I-268750J0D01*
G01*
X150831250Y-116450000D01*
G75*
G02*
X150562500Y-116181250I0J268750D01*
G01*
X150562500Y-115218750D01*
G75*
G02*
X150831250Y-114950000I268750J0D01*
G01*
X151368750Y-114950000D01*
G75*
G02*
X151637500Y-115218750I0J-268750D01*
G01*
G37*
G36*
G01*
X153512500Y-115218750D02*
X153512500Y-116181250D01*
G75*
G02*
X153243750Y-116450000I-268750J0D01*
G01*
X152706250Y-116450000D01*
G75*
G02*
X152437500Y-116181250I0J268750D01*
G01*
X152437500Y-115218750D01*
G75*
G02*
X152706250Y-114950000I268750J0D01*
G01*
X153243750Y-114950000D01*
G75*
G02*
X153512500Y-115218750I0J-268750D01*
G01*
G37*
%TD*%
%TO.C,C2*%
G36*
G01*
X151537500Y-128018750D02*
X151537500Y-128981250D01*
G75*
G02*
X151268750Y-129250000I-268750J0D01*
G01*
X150731250Y-129250000D01*
G75*
G02*
X150462500Y-128981250I0J268750D01*
G01*
X150462500Y-128018750D01*
G75*
G02*
X150731250Y-127750000I268750J0D01*
G01*
X151268750Y-127750000D01*
G75*
G02*
X151537500Y-128018750I0J-268750D01*
G01*
G37*
G36*
G01*
X153412500Y-128018750D02*
X153412500Y-128981250D01*
G75*
G02*
X153143750Y-129250000I-268750J0D01*
G01*
X152606250Y-129250000D01*
G75*
G02*
X152337500Y-128981250I0J268750D01*
G01*
X152337500Y-128018750D01*
G75*
G02*
X152606250Y-127750000I268750J0D01*
G01*
X153143750Y-127750000D01*
G75*
G02*
X153412500Y-128018750I0J-268750D01*
G01*
G37*
%TD*%
%TO.C,D1*%
G36*
G01*
X150587500Y-118231250D02*
X150587500Y-117268750D01*
G75*
G02*
X150856250Y-117000000I268750J0D01*
G01*
X151393750Y-117000000D01*
G75*
G02*
X151662500Y-117268750I0J-268750D01*
G01*
X151662500Y-118231250D01*
G75*
G02*
X151393750Y-118500000I-268750J0D01*
G01*
X150856250Y-118500000D01*
G75*
G02*
X150587500Y-118231250I0J268750D01*
G01*
G37*
G36*
G01*
X152462500Y-118231250D02*
X152462500Y-117268750D01*
G75*
G02*
X152731250Y-117000000I268750J0D01*
G01*
X153268750Y-117000000D01*
G75*
G02*
X153537500Y-117268750I0J-268750D01*
G01*
X153537500Y-118231250D01*
G75*
G02*
X153268750Y-118500000I-268750J0D01*
G01*
X152731250Y-118500000D01*
G75*
G02*
X152462500Y-118231250I0J268750D01*
G01*
G37*
%TD*%
%TO.C,R1*%
G36*
G01*
X153512500Y-121268750D02*
X153512500Y-122231250D01*
G75*
G02*
X153243750Y-122500000I-268750J0D01*
G01*
X152706250Y-122500000D01*
G75*
G02*
X152437500Y-122231250I0J268750D01*
G01*
X152437500Y-121268750D01*
G75*
G02*
X152706250Y-121000000I268750J0D01*
G01*
X153243750Y-121000000D01*
G75*
G02*
X153512500Y-121268750I0J-268750D01*
G01*
G37*
G36*
G01*
X151637500Y-121268750D02*
X151637500Y-122231250D01*
G75*
G02*
X151368750Y-122500000I-268750J0D01*
G01*
X150831250Y-122500000D01*
G75*
G02*
X150562500Y-122231250I0J268750D01*
G01*
X150562500Y-121268750D01*
G75*
G02*
X150831250Y-121000000I268750J0D01*
G01*
X151368750Y-121000000D01*
G75*
G02*
X151637500Y-121268750I0J-268750D01*
G01*
G37*
%TD*%
%TO.C,R2*%
G36*
G01*
X151662500Y-119268750D02*
X151662500Y-120231250D01*
G75*
G02*
X151393750Y-120500000I-268750J0D01*
G01*
X150856250Y-120500000D01*
G75*
G02*
X150587500Y-120231250I0J268750D01*
G01*
X150587500Y-119268750D01*
G75*
G02*
X150856250Y-119000000I268750J0D01*
G01*
X151393750Y-119000000D01*
G75*
G02*
X151662500Y-119268750I0J-268750D01*
G01*
G37*
G36*
G01*
X153537500Y-119268750D02*
X153537500Y-120231250D01*
G75*
G02*
X153268750Y-120500000I-268750J0D01*
G01*
X152731250Y-120500000D01*
G75*
G02*
X152462500Y-120231250I0J268750D01*
G01*
X152462500Y-119268750D01*
G75*
G02*
X152731250Y-119000000I268750J0D01*
G01*
X153268750Y-119000000D01*
G75*
G02*
X153537500Y-119268750I0J-268750D01*
G01*
G37*
%TD*%
D12*
%TO.C,U1*%
X151000000Y-123750000D03*
X151000000Y-124700000D03*
X151000000Y-125650000D03*
X153200000Y-125650000D03*
X153200000Y-123750000D03*
%TD*%
D13*
%TO.C,J1*%
X152675000Y-110000000D03*
X152675000Y-109350000D03*
X152675000Y-110650000D03*
X152675000Y-108700000D03*
X152675000Y-111300000D03*
D14*
X152425000Y-112800000D03*
X152425000Y-107200000D03*
D15*
X154575000Y-110000000D03*
%TD*%
%TO.C,J2*%
G36*
G01*
X155250000Y-142095832D02*
X155250000Y-143404168D01*
G75*
G02*
X154979168Y-143675000I-270832J0D01*
G01*
X154220832Y-143675000D01*
G75*
G02*
X153950000Y-143404168I0J270832D01*
G01*
X153950000Y-142095832D01*
G75*
G02*
X154220832Y-141825000I270832J0D01*
G01*
X154979168Y-141825000D01*
G75*
G02*
X155250000Y-142095832I0J-270832D01*
G01*
G37*
D16*
X152600000Y-142750000D03*
%TD*%
D17*
%TO.C,TP1*%
X148500000Y-111250000D03*
%TD*%
%TO.C,TP2*%
X148500000Y-108750000D03*
%TD*%
D18*
%TO.C,H1*%
X189000000Y-108000000D03*
%TD*%
%TO.C,H2*%
X169000000Y-108000000D03*
%TD*%
%TO.C,H3*%
X189000000Y-142000000D03*
%TD*%
%TO.C,H4*%
X169000000Y-142000000D03*
%TD*%
M02*
