%TF.GenerationSoftware,KiCad,Pcbnew,(5.1.6)-1*%
%TF.CreationDate,2020-12-02T11:33:45-05:00*%
%TF.ProjectId,HP_classic,48505f63-6c61-4737-9369-632e6b696361,2*%
%TF.SameCoordinates,Original*%
%TF.FileFunction,Legend,Top*%
%TF.FilePolarity,Positive*%
%FSLAX46Y46*%
G04 Gerber Fmt 4.6, Leading zero omitted, Abs format (unit mm)*
G04 Created by KiCad (PCBNEW (5.1.6)-1) date 2020-12-02 11:33:45*
%MOMM*%
%LPD*%
G01*
G04 APERTURE LIST*
%ADD10C,0.100000*%
%ADD11C,0.300000*%
%ADD12C,0.200000*%
%ADD13C,0.150000*%
%ADD14C,0.400000*%
%ADD15C,0.120000*%
%ADD16R,1.400000X0.750000*%
%ADD17R,1.800000X1.800000*%
%ADD18O,1.800000X1.800000*%
%ADD19R,1.600000X0.550000*%
%ADD20O,1.200000X1.900000*%
%ADD21O,1.200000X2.300000*%
%ADD22O,1.300000X1.850000*%
%ADD23C,1.600000*%
%ADD24C,2.100000*%
G04 APERTURE END LIST*
D10*
G36*
X150378273Y-118351683D02*
G01*
X150026560Y-118351683D01*
X150026560Y-117101683D01*
X150378273Y-117101683D01*
X150378273Y-118351683D01*
G37*
X150378273Y-118351683D02*
X150026560Y-118351683D01*
X150026560Y-117101683D01*
X150378273Y-117101683D01*
X150378273Y-118351683D01*
D11*
X158250000Y-117750000D02*
X154000000Y-117750000D01*
X158279021Y-125750000D02*
X158279021Y-117750000D01*
X154800000Y-125750000D02*
X158250000Y-125750000D01*
X154800000Y-117750000D02*
X154800000Y-125750000D01*
D12*
X156107142Y-124654761D02*
X156154761Y-124702380D01*
X156202380Y-124845238D01*
X156202380Y-124940476D01*
X156154761Y-125083333D01*
X156059523Y-125178571D01*
X155964285Y-125226190D01*
X155773809Y-125273809D01*
X155630952Y-125273809D01*
X155440476Y-125226190D01*
X155345238Y-125178571D01*
X155250000Y-125083333D01*
X155202380Y-124940476D01*
X155202380Y-124845238D01*
X155250000Y-124702380D01*
X155297619Y-124654761D01*
X156202380Y-124226190D02*
X155202380Y-124226190D01*
X155678571Y-124226190D02*
X155678571Y-123654761D01*
X156202380Y-123654761D02*
X155202380Y-123654761D01*
X155916666Y-123226190D02*
X155916666Y-122750000D01*
X156202380Y-123321428D02*
X155202380Y-122988095D01*
X156202380Y-122654761D01*
X156202380Y-121750000D02*
X155726190Y-122083333D01*
X156202380Y-122321428D02*
X155202380Y-122321428D01*
X155202380Y-121940476D01*
X155250000Y-121845238D01*
X155297619Y-121797619D01*
X155392857Y-121750000D01*
X155535714Y-121750000D01*
X155630952Y-121797619D01*
X155678571Y-121845238D01*
X155726190Y-121940476D01*
X155726190Y-122321428D01*
X155250000Y-120797619D02*
X155202380Y-120892857D01*
X155202380Y-121035714D01*
X155250000Y-121178571D01*
X155345238Y-121273809D01*
X155440476Y-121321428D01*
X155630952Y-121369047D01*
X155773809Y-121369047D01*
X155964285Y-121321428D01*
X156059523Y-121273809D01*
X156154761Y-121178571D01*
X156202380Y-121035714D01*
X156202380Y-120940476D01*
X156154761Y-120797619D01*
X156107142Y-120750000D01*
X155773809Y-120750000D01*
X155773809Y-120940476D01*
X156202380Y-120321428D02*
X155202380Y-120321428D01*
X156202380Y-119845238D02*
X155202380Y-119845238D01*
X156202380Y-119273809D01*
X155202380Y-119273809D01*
X155250000Y-118273809D02*
X155202380Y-118369047D01*
X155202380Y-118511904D01*
X155250000Y-118654761D01*
X155345238Y-118750000D01*
X155440476Y-118797619D01*
X155630952Y-118845238D01*
X155773809Y-118845238D01*
X155964285Y-118797619D01*
X156059523Y-118750000D01*
X156154761Y-118654761D01*
X156202380Y-118511904D01*
X156202380Y-118416666D01*
X156154761Y-118273809D01*
X156107142Y-118226190D01*
X155773809Y-118226190D01*
X155773809Y-118416666D01*
X156902380Y-125083333D02*
X157902380Y-124845238D01*
X157188095Y-124654761D01*
X157902380Y-124464285D01*
X156902380Y-124226190D01*
X157902380Y-123845238D02*
X156902380Y-123845238D01*
X157378571Y-123845238D02*
X157378571Y-123273809D01*
X157902380Y-123273809D02*
X156902380Y-123273809D01*
X157378571Y-122797619D02*
X157378571Y-122464285D01*
X157902380Y-122321428D02*
X157902380Y-122797619D01*
X156902380Y-122797619D01*
X156902380Y-122321428D01*
X157902380Y-121892857D02*
X156902380Y-121892857D01*
X157902380Y-121321428D01*
X156902380Y-121321428D01*
X157902380Y-119607142D02*
X157902380Y-120083333D01*
X156902380Y-120083333D01*
X157902380Y-119273809D02*
X156902380Y-119273809D01*
X156902380Y-118940476D02*
X156902380Y-118369047D01*
X157902380Y-118654761D02*
X156902380Y-118654761D01*
D13*
X155202380Y-135738095D02*
X154202380Y-135738095D01*
X155202380Y-135166666D01*
X154202380Y-135166666D01*
X154678571Y-134690476D02*
X154678571Y-134357142D01*
X155202380Y-134214285D02*
X155202380Y-134690476D01*
X154202380Y-134690476D01*
X154202380Y-134214285D01*
X154250000Y-133261904D02*
X154202380Y-133357142D01*
X154202380Y-133500000D01*
X154250000Y-133642857D01*
X154345238Y-133738095D01*
X154440476Y-133785714D01*
X154630952Y-133833333D01*
X154773809Y-133833333D01*
X154964285Y-133785714D01*
X155059523Y-133738095D01*
X155154761Y-133642857D01*
X155202380Y-133500000D01*
X155202380Y-133404761D01*
X155154761Y-133261904D01*
X155107142Y-133214285D01*
X154773809Y-133214285D01*
X154773809Y-133404761D01*
X152702380Y-135761904D02*
X151702380Y-135761904D01*
X151702380Y-135380952D01*
X151750000Y-135285714D01*
X151797619Y-135238095D01*
X151892857Y-135190476D01*
X152035714Y-135190476D01*
X152130952Y-135238095D01*
X152178571Y-135285714D01*
X152226190Y-135380952D01*
X152226190Y-135761904D01*
X151702380Y-134571428D02*
X151702380Y-134380952D01*
X151750000Y-134285714D01*
X151845238Y-134190476D01*
X152035714Y-134142857D01*
X152369047Y-134142857D01*
X152559523Y-134190476D01*
X152654761Y-134285714D01*
X152702380Y-134380952D01*
X152702380Y-134571428D01*
X152654761Y-134666666D01*
X152559523Y-134761904D01*
X152369047Y-134809523D01*
X152035714Y-134809523D01*
X151845238Y-134761904D01*
X151750000Y-134666666D01*
X151702380Y-134571428D01*
X152654761Y-133761904D02*
X152702380Y-133619047D01*
X152702380Y-133380952D01*
X152654761Y-133285714D01*
X152607142Y-133238095D01*
X152511904Y-133190476D01*
X152416666Y-133190476D01*
X152321428Y-133238095D01*
X152273809Y-133285714D01*
X152226190Y-133380952D01*
X152178571Y-133571428D01*
X152130952Y-133666666D01*
X152083333Y-133714285D01*
X151988095Y-133761904D01*
X151892857Y-133761904D01*
X151797619Y-133714285D01*
X151750000Y-133666666D01*
X151702380Y-133571428D01*
X151702380Y-133333333D01*
X151750000Y-133190476D01*
D14*
X168071428Y-122204761D02*
X169309523Y-122204761D01*
X168642857Y-122966666D01*
X168928571Y-122966666D01*
X169119047Y-123061904D01*
X169214285Y-123157142D01*
X169309523Y-123347619D01*
X169309523Y-123823809D01*
X169214285Y-124014285D01*
X169119047Y-124109523D01*
X168928571Y-124204761D01*
X168357142Y-124204761D01*
X168166666Y-124109523D01*
X168071428Y-124014285D01*
X170166666Y-124014285D02*
X170261904Y-124109523D01*
X170166666Y-124204761D01*
X170071428Y-124109523D01*
X170166666Y-124014285D01*
X170166666Y-124204761D01*
X170928571Y-122204761D02*
X172261904Y-122204761D01*
X171404761Y-124204761D01*
X172738095Y-122204761D02*
X173404761Y-124204761D01*
X174071428Y-122204761D01*
X177214285Y-124204761D02*
X176261904Y-124204761D01*
X176261904Y-122204761D01*
X177880952Y-124204761D02*
X177880952Y-122871428D01*
X177880952Y-122204761D02*
X177785714Y-122300000D01*
X177880952Y-122395238D01*
X177976190Y-122300000D01*
X177880952Y-122204761D01*
X177880952Y-122395238D01*
X178833333Y-124204761D02*
X178833333Y-122204761D01*
X179595238Y-122204761D01*
X179785714Y-122300000D01*
X179880952Y-122395238D01*
X179976190Y-122585714D01*
X179976190Y-122871428D01*
X179880952Y-123061904D01*
X179785714Y-123157142D01*
X179595238Y-123252380D01*
X178833333Y-123252380D01*
X181119047Y-124204761D02*
X180928571Y-124109523D01*
X180833333Y-124014285D01*
X180738095Y-123823809D01*
X180738095Y-123252380D01*
X180833333Y-123061904D01*
X180928571Y-122966666D01*
X181119047Y-122871428D01*
X181404761Y-122871428D01*
X181595238Y-122966666D01*
X181690476Y-123061904D01*
X181785714Y-123252380D01*
X181785714Y-123823809D01*
X181690476Y-124014285D01*
X181595238Y-124109523D01*
X181404761Y-124204761D01*
X181119047Y-124204761D01*
X184547619Y-122204761D02*
X184928571Y-122204761D01*
X185119047Y-122300000D01*
X185309523Y-122490476D01*
X185404761Y-122871428D01*
X185404761Y-123538095D01*
X185309523Y-123919047D01*
X185119047Y-124109523D01*
X184928571Y-124204761D01*
X184547619Y-124204761D01*
X184357142Y-124109523D01*
X184166666Y-123919047D01*
X184071428Y-123538095D01*
X184071428Y-122871428D01*
X184166666Y-122490476D01*
X184357142Y-122300000D01*
X184547619Y-122204761D01*
X186261904Y-124204761D02*
X186261904Y-122204761D01*
X187404761Y-124204761D01*
X187404761Y-122204761D01*
X189309523Y-124204761D02*
X188357142Y-124204761D01*
X188357142Y-122204761D01*
X190357142Y-123252380D02*
X190357142Y-124204761D01*
X189690476Y-122204761D02*
X190357142Y-123252380D01*
X191023809Y-122204761D01*
X164928571Y-125604761D02*
X165119047Y-125604761D01*
X165309523Y-125700000D01*
X165404761Y-125795238D01*
X165500000Y-125985714D01*
X165595238Y-126366666D01*
X165595238Y-126842857D01*
X165500000Y-127223809D01*
X165404761Y-127414285D01*
X165309523Y-127509523D01*
X165119047Y-127604761D01*
X164928571Y-127604761D01*
X164738095Y-127509523D01*
X164642857Y-127414285D01*
X164547619Y-127223809D01*
X164452380Y-126842857D01*
X164452380Y-126366666D01*
X164547619Y-125985714D01*
X164642857Y-125795238D01*
X164738095Y-125700000D01*
X164928571Y-125604761D01*
X166452380Y-127414285D02*
X166547619Y-127509523D01*
X166452380Y-127604761D01*
X166357142Y-127509523D01*
X166452380Y-127414285D01*
X166452380Y-127604761D01*
X167309523Y-125795238D02*
X167404761Y-125700000D01*
X167595238Y-125604761D01*
X168071428Y-125604761D01*
X168261904Y-125700000D01*
X168357142Y-125795238D01*
X168452380Y-125985714D01*
X168452380Y-126176190D01*
X168357142Y-126461904D01*
X167214285Y-127604761D01*
X168452380Y-127604761D01*
X169214285Y-127033333D02*
X170166666Y-127033333D01*
X169023809Y-127604761D02*
X169690476Y-125604761D01*
X170357142Y-127604761D01*
X173690476Y-127414285D02*
X173595238Y-127509523D01*
X173309523Y-127604761D01*
X173119047Y-127604761D01*
X172833333Y-127509523D01*
X172642857Y-127319047D01*
X172547619Y-127128571D01*
X172452380Y-126747619D01*
X172452380Y-126461904D01*
X172547619Y-126080952D01*
X172642857Y-125890476D01*
X172833333Y-125700000D01*
X173119047Y-125604761D01*
X173309523Y-125604761D01*
X173595238Y-125700000D01*
X173690476Y-125795238D01*
X174547619Y-127604761D02*
X174547619Y-125604761D01*
X175404761Y-127604761D02*
X175404761Y-126557142D01*
X175309523Y-126366666D01*
X175119047Y-126271428D01*
X174833333Y-126271428D01*
X174642857Y-126366666D01*
X174547619Y-126461904D01*
X177214285Y-127604761D02*
X177214285Y-126557142D01*
X177119047Y-126366666D01*
X176928571Y-126271428D01*
X176547619Y-126271428D01*
X176357142Y-126366666D01*
X177214285Y-127509523D02*
X177023809Y-127604761D01*
X176547619Y-127604761D01*
X176357142Y-127509523D01*
X176261904Y-127319047D01*
X176261904Y-127128571D01*
X176357142Y-126938095D01*
X176547619Y-126842857D01*
X177023809Y-126842857D01*
X177214285Y-126747619D01*
X178166666Y-127604761D02*
X178166666Y-126271428D01*
X178166666Y-126652380D02*
X178261904Y-126461904D01*
X178357142Y-126366666D01*
X178547619Y-126271428D01*
X178738095Y-126271428D01*
X180261904Y-126271428D02*
X180261904Y-127890476D01*
X180166666Y-128080952D01*
X180071428Y-128176190D01*
X179880952Y-128271428D01*
X179595238Y-128271428D01*
X179404761Y-128176190D01*
X180261904Y-127509523D02*
X180071428Y-127604761D01*
X179690476Y-127604761D01*
X179500000Y-127509523D01*
X179404761Y-127414285D01*
X179309523Y-127223809D01*
X179309523Y-126652380D01*
X179404761Y-126461904D01*
X179500000Y-126366666D01*
X179690476Y-126271428D01*
X180071428Y-126271428D01*
X180261904Y-126366666D01*
X181976190Y-127509523D02*
X181785714Y-127604761D01*
X181404761Y-127604761D01*
X181214285Y-127509523D01*
X181119047Y-127319047D01*
X181119047Y-126557142D01*
X181214285Y-126366666D01*
X181404761Y-126271428D01*
X181785714Y-126271428D01*
X181976190Y-126366666D01*
X182071428Y-126557142D01*
X182071428Y-126747619D01*
X181119047Y-126938095D01*
X185595238Y-127414285D02*
X185500000Y-127509523D01*
X185214285Y-127604761D01*
X185023809Y-127604761D01*
X184738095Y-127509523D01*
X184547619Y-127319047D01*
X184452380Y-127128571D01*
X184357142Y-126747619D01*
X184357142Y-126461904D01*
X184452380Y-126080952D01*
X184547619Y-125890476D01*
X184738095Y-125700000D01*
X185023809Y-125604761D01*
X185214285Y-125604761D01*
X185500000Y-125700000D01*
X185595238Y-125795238D01*
X187309523Y-126271428D02*
X187309523Y-127604761D01*
X186452380Y-126271428D02*
X186452380Y-127319047D01*
X186547619Y-127509523D01*
X186738095Y-127604761D01*
X187023809Y-127604761D01*
X187214285Y-127509523D01*
X187309523Y-127414285D01*
X188261904Y-127604761D02*
X188261904Y-126271428D01*
X188261904Y-126652380D02*
X188357142Y-126461904D01*
X188452380Y-126366666D01*
X188642857Y-126271428D01*
X188833333Y-126271428D01*
X189500000Y-127604761D02*
X189500000Y-126271428D01*
X189500000Y-126652380D02*
X189595238Y-126461904D01*
X189690476Y-126366666D01*
X189880952Y-126271428D01*
X190071428Y-126271428D01*
X191500000Y-127509523D02*
X191309523Y-127604761D01*
X190928571Y-127604761D01*
X190738095Y-127509523D01*
X190642857Y-127319047D01*
X190642857Y-126557142D01*
X190738095Y-126366666D01*
X190928571Y-126271428D01*
X191309523Y-126271428D01*
X191500000Y-126366666D01*
X191595238Y-126557142D01*
X191595238Y-126747619D01*
X190642857Y-126938095D01*
X192452380Y-126271428D02*
X192452380Y-127604761D01*
X192452380Y-126461904D02*
X192547619Y-126366666D01*
X192738095Y-126271428D01*
X193023809Y-126271428D01*
X193214285Y-126366666D01*
X193309523Y-126557142D01*
X193309523Y-127604761D01*
X193976190Y-126271428D02*
X194738095Y-126271428D01*
X194261904Y-125604761D02*
X194261904Y-127319047D01*
X194357142Y-127509523D01*
X194547619Y-127604761D01*
X194738095Y-127604761D01*
D12*
X156442857Y-112114285D02*
X156442857Y-112685714D01*
X157014285Y-112742857D01*
X156957142Y-112685714D01*
X156900000Y-112571428D01*
X156900000Y-112285714D01*
X156957142Y-112171428D01*
X157014285Y-112114285D01*
X157128571Y-112057142D01*
X157414285Y-112057142D01*
X157528571Y-112114285D01*
X157585714Y-112171428D01*
X157642857Y-112285714D01*
X157642857Y-112571428D01*
X157585714Y-112685714D01*
X157528571Y-112742857D01*
X156442857Y-111714285D02*
X157642857Y-111314285D01*
X156442857Y-110914285D01*
X156385714Y-109657142D02*
X157928571Y-110685714D01*
X157642857Y-108628571D02*
X157642857Y-109314285D01*
X157642857Y-108971428D02*
X156442857Y-108971428D01*
X156614285Y-109085714D01*
X156728571Y-109200000D01*
X156785714Y-109314285D01*
X156442857Y-108228571D02*
X157642857Y-107942857D01*
X156785714Y-107714285D01*
X157642857Y-107485714D01*
X156442857Y-107200000D01*
D15*
%TO.C,U1*%
X153400000Y-123140000D02*
X150950000Y-123140000D01*
X151600000Y-126360000D02*
X153400000Y-126360000D01*
%TO.C,J3*%
X150970000Y-139760000D02*
X156170000Y-139760000D01*
X156170000Y-139760000D02*
X156170000Y-137100000D01*
X156170000Y-137100000D02*
X150970000Y-137100000D01*
X150970000Y-137100000D02*
X150970000Y-139760000D01*
X151920000Y-140090000D02*
X151920000Y-139760000D01*
X152680000Y-140090000D02*
X152680000Y-139760000D01*
X153570000Y-139760000D02*
X153570000Y-137100000D01*
X154460000Y-140157071D02*
X154460000Y-139760000D01*
X155220000Y-140157071D02*
X155220000Y-139760000D01*
%TO.C,C1*%
X152521078Y-116460000D02*
X152003922Y-116460000D01*
X152521078Y-115040000D02*
X152003922Y-115040000D01*
%TO.C,D1*%
X150615000Y-118710000D02*
X153300000Y-118710000D01*
X150615000Y-116790000D02*
X150615000Y-118710000D01*
X153300000Y-116790000D02*
X150615000Y-116790000D01*
%TO.C,R1*%
X152558578Y-121040000D02*
X152041422Y-121040000D01*
X152558578Y-122460000D02*
X152041422Y-122460000D01*
%TO.C,R2*%
X152558578Y-120460000D02*
X152041422Y-120460000D01*
X152558578Y-119040000D02*
X152041422Y-119040000D01*
%TO.C,J1*%
X155325000Y-112000000D02*
X155325000Y-114150000D01*
X151775000Y-114150000D02*
X151775000Y-111250000D01*
X155325000Y-105850000D02*
X151775000Y-105850000D01*
X151775000Y-105850000D02*
X151775000Y-108750000D01*
X155325000Y-114150000D02*
X151775000Y-114150000D01*
X155325000Y-108000000D02*
X155325000Y-105850000D01*
X155325000Y-108300000D02*
X155325000Y-108900000D01*
X154575000Y-108300000D02*
X155325000Y-108300000D01*
%TO.C,J2*%
X155460000Y-142610000D02*
X155740000Y-142610000D01*
X155740000Y-142610000D02*
X155740000Y-144210000D01*
X155740000Y-144210000D02*
X156660000Y-144210000D01*
X156660000Y-144210000D02*
X156660000Y-136390000D01*
X156660000Y-136390000D02*
X150540000Y-136390000D01*
X150540000Y-136390000D02*
X150540000Y-144210000D01*
X150540000Y-144210000D02*
X151460000Y-144210000D01*
X151460000Y-144210000D02*
X151460000Y-142610000D01*
X151460000Y-142610000D02*
X151740000Y-142610000D01*
X154100000Y-136390000D02*
X154100000Y-140750000D01*
X154100000Y-140750000D02*
X153100000Y-140750000D01*
X153100000Y-140750000D02*
X153100000Y-136390000D01*
X156660000Y-142610000D02*
X155740000Y-142610000D01*
X150540000Y-142610000D02*
X151460000Y-142610000D01*
X155900000Y-140250000D02*
X155900000Y-138650000D01*
X155900000Y-138650000D02*
X154900000Y-138650000D01*
X154900000Y-138650000D02*
X154900000Y-140250000D01*
X154900000Y-140250000D02*
X155900000Y-140250000D01*
X151300000Y-140250000D02*
X151300000Y-138650000D01*
X151300000Y-138650000D02*
X152300000Y-138650000D01*
X152300000Y-138650000D02*
X152300000Y-140250000D01*
X152300000Y-140250000D02*
X151300000Y-140250000D01*
X154900000Y-138650000D02*
X154900000Y-136390000D01*
X155400000Y-138650000D02*
X155400000Y-136390000D01*
X155460000Y-142610000D02*
X155460000Y-143825000D01*
%TO.C,TP1*%
X156200000Y-115700000D02*
G75*
G03*
X156200000Y-115700000I-950000J0D01*
G01*
%TO.C,TP2*%
X156200000Y-128750000D02*
G75*
G03*
X156200000Y-128750000I-950000J0D01*
G01*
%TO.C,C2*%
X152521078Y-127190000D02*
X152003922Y-127190000D01*
X152521078Y-128610000D02*
X152003922Y-128610000D01*
%TO.C,U1*%
D13*
X148238095Y-124202380D02*
X148238095Y-125011904D01*
X148285714Y-125107142D01*
X148333333Y-125154761D01*
X148428571Y-125202380D01*
X148619047Y-125202380D01*
X148714285Y-125154761D01*
X148761904Y-125107142D01*
X148809523Y-125011904D01*
X148809523Y-124202380D01*
X149809523Y-125202380D02*
X149238095Y-125202380D01*
X149523809Y-125202380D02*
X149523809Y-124202380D01*
X149428571Y-124345238D01*
X149333333Y-124440476D01*
X149238095Y-124488095D01*
%TO.C,C1*%
X148833333Y-116107142D02*
X148785714Y-116154761D01*
X148642857Y-116202380D01*
X148547619Y-116202380D01*
X148404761Y-116154761D01*
X148309523Y-116059523D01*
X148261904Y-115964285D01*
X148214285Y-115773809D01*
X148214285Y-115630952D01*
X148261904Y-115440476D01*
X148309523Y-115345238D01*
X148404761Y-115250000D01*
X148547619Y-115202380D01*
X148642857Y-115202380D01*
X148785714Y-115250000D01*
X148833333Y-115297619D01*
X149785714Y-116202380D02*
X149214285Y-116202380D01*
X149500000Y-116202380D02*
X149500000Y-115202380D01*
X149404761Y-115345238D01*
X149309523Y-115440476D01*
X149214285Y-115488095D01*
%TO.C,D1*%
X148261904Y-118202380D02*
X148261904Y-117202380D01*
X148500000Y-117202380D01*
X148642857Y-117250000D01*
X148738095Y-117345238D01*
X148785714Y-117440476D01*
X148833333Y-117630952D01*
X148833333Y-117773809D01*
X148785714Y-117964285D01*
X148738095Y-118059523D01*
X148642857Y-118154761D01*
X148500000Y-118202380D01*
X148261904Y-118202380D01*
X149785714Y-118202380D02*
X149214285Y-118202380D01*
X149500000Y-118202380D02*
X149500000Y-117202380D01*
X149404761Y-117345238D01*
X149309523Y-117440476D01*
X149214285Y-117488095D01*
%TO.C,R1*%
X148833333Y-122202380D02*
X148500000Y-121726190D01*
X148261904Y-122202380D02*
X148261904Y-121202380D01*
X148642857Y-121202380D01*
X148738095Y-121250000D01*
X148785714Y-121297619D01*
X148833333Y-121392857D01*
X148833333Y-121535714D01*
X148785714Y-121630952D01*
X148738095Y-121678571D01*
X148642857Y-121726190D01*
X148261904Y-121726190D01*
X149785714Y-122202380D02*
X149214285Y-122202380D01*
X149500000Y-122202380D02*
X149500000Y-121202380D01*
X149404761Y-121345238D01*
X149309523Y-121440476D01*
X149214285Y-121488095D01*
%TO.C,R2*%
X148833333Y-120202380D02*
X148500000Y-119726190D01*
X148261904Y-120202380D02*
X148261904Y-119202380D01*
X148642857Y-119202380D01*
X148738095Y-119250000D01*
X148785714Y-119297619D01*
X148833333Y-119392857D01*
X148833333Y-119535714D01*
X148785714Y-119630952D01*
X148738095Y-119678571D01*
X148642857Y-119726190D01*
X148261904Y-119726190D01*
X149214285Y-119297619D02*
X149261904Y-119250000D01*
X149357142Y-119202380D01*
X149595238Y-119202380D01*
X149690476Y-119250000D01*
X149738095Y-119297619D01*
X149785714Y-119392857D01*
X149785714Y-119488095D01*
X149738095Y-119630952D01*
X149166666Y-120202380D01*
X149785714Y-120202380D01*
%TO.C,J1*%
X150352380Y-107633333D02*
X151066666Y-107633333D01*
X151209523Y-107680952D01*
X151304761Y-107776190D01*
X151352380Y-107919047D01*
X151352380Y-108014285D01*
X151352380Y-106633333D02*
X151352380Y-107204761D01*
X151352380Y-106919047D02*
X150352380Y-106919047D01*
X150495238Y-107014285D01*
X150590476Y-107109523D01*
X150638095Y-107204761D01*
%TO.C,J2*%
D11*
X157428571Y-141750000D02*
X158500000Y-141750000D01*
X158714285Y-141821428D01*
X158857142Y-141964285D01*
X158928571Y-142178571D01*
X158928571Y-142321428D01*
X157571428Y-141107142D02*
X157500000Y-141035714D01*
X157428571Y-140892857D01*
X157428571Y-140535714D01*
X157500000Y-140392857D01*
X157571428Y-140321428D01*
X157714285Y-140250000D01*
X157857142Y-140250000D01*
X158071428Y-140321428D01*
X158928571Y-141178571D01*
X158928571Y-140250000D01*
%TO.C,TP1*%
D13*
X156552380Y-116761904D02*
X156552380Y-116190476D01*
X157552380Y-116476190D02*
X156552380Y-116476190D01*
X157552380Y-115857142D02*
X156552380Y-115857142D01*
X156552380Y-115476190D01*
X156600000Y-115380952D01*
X156647619Y-115333333D01*
X156742857Y-115285714D01*
X156885714Y-115285714D01*
X156980952Y-115333333D01*
X157028571Y-115380952D01*
X157076190Y-115476190D01*
X157076190Y-115857142D01*
X157552380Y-114333333D02*
X157552380Y-114904761D01*
X157552380Y-114619047D02*
X156552380Y-114619047D01*
X156695238Y-114714285D01*
X156790476Y-114809523D01*
X156838095Y-114904761D01*
%TO.C,TP2*%
X156557142Y-129785714D02*
X156557142Y-129271428D01*
X157457142Y-129528571D02*
X156557142Y-129528571D01*
X157457142Y-128971428D02*
X156557142Y-128971428D01*
X156557142Y-128628571D01*
X156600000Y-128542857D01*
X156642857Y-128500000D01*
X156728571Y-128457142D01*
X156857142Y-128457142D01*
X156942857Y-128500000D01*
X156985714Y-128542857D01*
X157028571Y-128628571D01*
X157028571Y-128971428D01*
X156642857Y-128114285D02*
X156600000Y-128071428D01*
X156557142Y-127985714D01*
X156557142Y-127771428D01*
X156600000Y-127685714D01*
X156642857Y-127642857D01*
X156728571Y-127600000D01*
X156814285Y-127600000D01*
X156942857Y-127642857D01*
X157457142Y-128157142D01*
X157457142Y-127600000D01*
%TO.C,C2*%
X148833333Y-128357142D02*
X148785714Y-128404761D01*
X148642857Y-128452380D01*
X148547619Y-128452380D01*
X148404761Y-128404761D01*
X148309523Y-128309523D01*
X148261904Y-128214285D01*
X148214285Y-128023809D01*
X148214285Y-127880952D01*
X148261904Y-127690476D01*
X148309523Y-127595238D01*
X148404761Y-127500000D01*
X148547619Y-127452380D01*
X148642857Y-127452380D01*
X148785714Y-127500000D01*
X148833333Y-127547619D01*
X149214285Y-127547619D02*
X149261904Y-127500000D01*
X149357142Y-127452380D01*
X149595238Y-127452380D01*
X149690476Y-127500000D01*
X149738095Y-127547619D01*
X149785714Y-127642857D01*
X149785714Y-127738095D01*
X149738095Y-127880952D01*
X149166666Y-128452380D01*
X149785714Y-128452380D01*
%TD*%
%LPC*%
D10*
G36*
X155300000Y-111500000D02*
G01*
X155050000Y-111500000D01*
X155050000Y-111100000D01*
X155300000Y-111100000D01*
X155300000Y-111500000D01*
G37*
X155300000Y-111500000D02*
X155050000Y-111500000D01*
X155050000Y-111100000D01*
X155300000Y-111100000D01*
X155300000Y-111500000D01*
G36*
X155300000Y-110850000D02*
G01*
X155050000Y-110850000D01*
X155050000Y-110450000D01*
X155300000Y-110450000D01*
X155300000Y-110850000D01*
G37*
X155300000Y-110850000D02*
X155050000Y-110850000D01*
X155050000Y-110450000D01*
X155300000Y-110450000D01*
X155300000Y-110850000D01*
G36*
X155300000Y-110200000D02*
G01*
X155050000Y-110200000D01*
X155050000Y-109800000D01*
X155300000Y-109800000D01*
X155300000Y-110200000D01*
G37*
X155300000Y-110200000D02*
X155050000Y-110200000D01*
X155050000Y-109800000D01*
X155300000Y-109800000D01*
X155300000Y-110200000D01*
G36*
X155300000Y-109550000D02*
G01*
X155050000Y-109550000D01*
X155050000Y-109150000D01*
X155300000Y-109150000D01*
X155300000Y-109550000D01*
G37*
X155300000Y-109550000D02*
X155050000Y-109550000D01*
X155050000Y-109150000D01*
X155300000Y-109150000D01*
X155300000Y-109550000D01*
G36*
X155300000Y-108900000D02*
G01*
X155050000Y-108900000D01*
X155050000Y-108500000D01*
X155300000Y-108500000D01*
X155300000Y-108900000D01*
G37*
X155300000Y-108900000D02*
X155050000Y-108900000D01*
X155050000Y-108500000D01*
X155300000Y-108500000D01*
X155300000Y-108900000D01*
D16*
%TO.C,U1*%
X151400000Y-123800000D03*
X151400000Y-124750000D03*
X151400000Y-125700000D03*
X153600000Y-125700000D03*
X153600000Y-123800000D03*
%TD*%
D17*
%TO.C,J3*%
X152300000Y-141200000D03*
D18*
X154840000Y-141200000D03*
%TD*%
%TO.C,C1*%
G36*
G01*
X151862500Y-115268750D02*
X151862500Y-116231250D01*
G75*
G02*
X151593750Y-116500000I-268750J0D01*
G01*
X151056250Y-116500000D01*
G75*
G02*
X150787500Y-116231250I0J268750D01*
G01*
X150787500Y-115268750D01*
G75*
G02*
X151056250Y-115000000I268750J0D01*
G01*
X151593750Y-115000000D01*
G75*
G02*
X151862500Y-115268750I0J-268750D01*
G01*
G37*
G36*
G01*
X153737500Y-115268750D02*
X153737500Y-116231250D01*
G75*
G02*
X153468750Y-116500000I-268750J0D01*
G01*
X152931250Y-116500000D01*
G75*
G02*
X152662500Y-116231250I0J268750D01*
G01*
X152662500Y-115268750D01*
G75*
G02*
X152931250Y-115000000I268750J0D01*
G01*
X153468750Y-115000000D01*
G75*
G02*
X153737500Y-115268750I0J-268750D01*
G01*
G37*
%TD*%
%TO.C,D1*%
G36*
G01*
X150825000Y-118231250D02*
X150825000Y-117268750D01*
G75*
G02*
X151093750Y-117000000I268750J0D01*
G01*
X151631250Y-117000000D01*
G75*
G02*
X151900000Y-117268750I0J-268750D01*
G01*
X151900000Y-118231250D01*
G75*
G02*
X151631250Y-118500000I-268750J0D01*
G01*
X151093750Y-118500000D01*
G75*
G02*
X150825000Y-118231250I0J268750D01*
G01*
G37*
G36*
G01*
X152700000Y-118231250D02*
X152700000Y-117268750D01*
G75*
G02*
X152968750Y-117000000I268750J0D01*
G01*
X153506250Y-117000000D01*
G75*
G02*
X153775000Y-117268750I0J-268750D01*
G01*
X153775000Y-118231250D01*
G75*
G02*
X153506250Y-118500000I-268750J0D01*
G01*
X152968750Y-118500000D01*
G75*
G02*
X152700000Y-118231250I0J268750D01*
G01*
G37*
%TD*%
%TO.C,R1*%
G36*
G01*
X153775000Y-121268750D02*
X153775000Y-122231250D01*
G75*
G02*
X153506250Y-122500000I-268750J0D01*
G01*
X152968750Y-122500000D01*
G75*
G02*
X152700000Y-122231250I0J268750D01*
G01*
X152700000Y-121268750D01*
G75*
G02*
X152968750Y-121000000I268750J0D01*
G01*
X153506250Y-121000000D01*
G75*
G02*
X153775000Y-121268750I0J-268750D01*
G01*
G37*
G36*
G01*
X151900000Y-121268750D02*
X151900000Y-122231250D01*
G75*
G02*
X151631250Y-122500000I-268750J0D01*
G01*
X151093750Y-122500000D01*
G75*
G02*
X150825000Y-122231250I0J268750D01*
G01*
X150825000Y-121268750D01*
G75*
G02*
X151093750Y-121000000I268750J0D01*
G01*
X151631250Y-121000000D01*
G75*
G02*
X151900000Y-121268750I0J-268750D01*
G01*
G37*
%TD*%
%TO.C,R2*%
G36*
G01*
X151900000Y-119268750D02*
X151900000Y-120231250D01*
G75*
G02*
X151631250Y-120500000I-268750J0D01*
G01*
X151093750Y-120500000D01*
G75*
G02*
X150825000Y-120231250I0J268750D01*
G01*
X150825000Y-119268750D01*
G75*
G02*
X151093750Y-119000000I268750J0D01*
G01*
X151631250Y-119000000D01*
G75*
G02*
X151900000Y-119268750I0J-268750D01*
G01*
G37*
G36*
G01*
X153775000Y-119268750D02*
X153775000Y-120231250D01*
G75*
G02*
X153506250Y-120500000I-268750J0D01*
G01*
X152968750Y-120500000D01*
G75*
G02*
X152700000Y-120231250I0J268750D01*
G01*
X152700000Y-119268750D01*
G75*
G02*
X152968750Y-119000000I268750J0D01*
G01*
X153506250Y-119000000D01*
G75*
G02*
X153775000Y-119268750I0J-268750D01*
G01*
G37*
%TD*%
D19*
%TO.C,J1*%
X154325000Y-110000000D03*
X154325000Y-110650000D03*
X154325000Y-109350000D03*
X154325000Y-111300000D03*
X154325000Y-108700000D03*
D20*
X154575000Y-107200000D03*
X154575000Y-112800000D03*
D21*
X152425000Y-110000000D03*
%TD*%
%TO.C,J2*%
G36*
G01*
X155250000Y-142095832D02*
X155250000Y-143404168D01*
G75*
G02*
X154979168Y-143675000I-270832J0D01*
G01*
X154220832Y-143675000D01*
G75*
G02*
X153950000Y-143404168I0J270832D01*
G01*
X153950000Y-142095832D01*
G75*
G02*
X154220832Y-141825000I270832J0D01*
G01*
X154979168Y-141825000D01*
G75*
G02*
X155250000Y-142095832I0J-270832D01*
G01*
G37*
D22*
X152600000Y-142750000D03*
%TD*%
D23*
%TO.C,TP1*%
X155250000Y-115700000D03*
%TD*%
%TO.C,TP2*%
X155250000Y-128750000D03*
%TD*%
D24*
%TO.C,H1*%
X189000000Y-108000000D03*
%TD*%
%TO.C,H2*%
X169000000Y-108000000D03*
%TD*%
%TO.C,H3*%
X189000000Y-142000000D03*
%TD*%
%TO.C,H4*%
X169000000Y-142000000D03*
%TD*%
%TO.C,C2*%
G36*
G01*
X153737500Y-127418750D02*
X153737500Y-128381250D01*
G75*
G02*
X153468750Y-128650000I-268750J0D01*
G01*
X152931250Y-128650000D01*
G75*
G02*
X152662500Y-128381250I0J268750D01*
G01*
X152662500Y-127418750D01*
G75*
G02*
X152931250Y-127150000I268750J0D01*
G01*
X153468750Y-127150000D01*
G75*
G02*
X153737500Y-127418750I0J-268750D01*
G01*
G37*
G36*
G01*
X151862500Y-127418750D02*
X151862500Y-128381250D01*
G75*
G02*
X151593750Y-128650000I-268750J0D01*
G01*
X151056250Y-128650000D01*
G75*
G02*
X150787500Y-128381250I0J268750D01*
G01*
X150787500Y-127418750D01*
G75*
G02*
X151056250Y-127150000I268750J0D01*
G01*
X151593750Y-127150000D01*
G75*
G02*
X151862500Y-127418750I0J-268750D01*
G01*
G37*
%TD*%
M02*
