%TF.GenerationSoftware,KiCad,Pcbnew,(5.1.6)-1*%
%TF.CreationDate,2020-11-11T17:37:01-05:00*%
%TF.ProjectId,HP_classic,48505f63-6c61-4737-9369-632e6b696361,rev?*%
%TF.SameCoordinates,Original*%
%TF.FileFunction,Copper,L1,Top*%
%TF.FilePolarity,Positive*%
%FSLAX46Y46*%
G04 Gerber Fmt 4.6, Leading zero omitted, Abs format (unit mm)*
G04 Created by KiCad (PCBNEW (5.1.6)-1) date 2020-11-11 17:37:01*
%MOMM*%
%LPD*%
G01*
G04 APERTURE LIST*
%TA.AperFunction,ComponentPad*%
%ADD10R,1.700000X1.700000*%
%TD*%
%TA.AperFunction,ComponentPad*%
%ADD11O,1.700000X1.700000*%
%TD*%
%TA.AperFunction,SMDPad,CuDef*%
%ADD12R,1.060000X0.650000*%
%TD*%
%TA.AperFunction,SMDPad,CuDef*%
%ADD13R,1.500000X0.450000*%
%TD*%
%TA.AperFunction,ComponentPad*%
%ADD14O,1.100000X1.800000*%
%TD*%
%TA.AperFunction,ComponentPad*%
%ADD15O,1.100000X2.200000*%
%TD*%
%TA.AperFunction,ComponentPad*%
%ADD16O,1.200000X1.750000*%
%TD*%
%TA.AperFunction,SMDPad,CuDef*%
%ADD17C,1.500000*%
%TD*%
%TA.AperFunction,ViaPad*%
%ADD18C,1.000000*%
%TD*%
%TA.AperFunction,Conductor*%
%ADD19C,0.350000*%
%TD*%
%TA.AperFunction,Conductor*%
%ADD20C,0.500000*%
%TD*%
%TA.AperFunction,Conductor*%
%ADD21C,1.500000*%
%TD*%
%TA.AperFunction,Conductor*%
%ADD22C,0.700000*%
%TD*%
%TA.AperFunction,Conductor*%
%ADD23C,0.250000*%
%TD*%
G04 APERTURE END LIST*
D10*
%TO.P,J3,1*%
%TO.N,GND*%
X152300000Y-141200000D03*
D11*
%TO.P,J3,2*%
%TO.N,/VBAT*%
X154840000Y-141200000D03*
%TD*%
%TO.P,C1,2*%
%TO.N,GND*%
%TA.AperFunction,SMDPad,CuDef*%
G36*
G01*
X151587500Y-115243750D02*
X151587500Y-116156250D01*
G75*
G02*
X151343750Y-116400000I-243750J0D01*
G01*
X150856250Y-116400000D01*
G75*
G02*
X150612500Y-116156250I0J243750D01*
G01*
X150612500Y-115243750D01*
G75*
G02*
X150856250Y-115000000I243750J0D01*
G01*
X151343750Y-115000000D01*
G75*
G02*
X151587500Y-115243750I0J-243750D01*
G01*
G37*
%TD.AperFunction*%
%TO.P,C1,1*%
%TO.N,/VUSB*%
%TA.AperFunction,SMDPad,CuDef*%
G36*
G01*
X153462500Y-115243750D02*
X153462500Y-116156250D01*
G75*
G02*
X153218750Y-116400000I-243750J0D01*
G01*
X152731250Y-116400000D01*
G75*
G02*
X152487500Y-116156250I0J243750D01*
G01*
X152487500Y-115243750D01*
G75*
G02*
X152731250Y-115000000I243750J0D01*
G01*
X153218750Y-115000000D01*
G75*
G02*
X153462500Y-115243750I0J-243750D01*
G01*
G37*
%TD.AperFunction*%
%TD*%
%TO.P,C2,2*%
%TO.N,GND*%
%TA.AperFunction,SMDPad,CuDef*%
G36*
G01*
X151487500Y-128043750D02*
X151487500Y-128956250D01*
G75*
G02*
X151243750Y-129200000I-243750J0D01*
G01*
X150756250Y-129200000D01*
G75*
G02*
X150512500Y-128956250I0J243750D01*
G01*
X150512500Y-128043750D01*
G75*
G02*
X150756250Y-127800000I243750J0D01*
G01*
X151243750Y-127800000D01*
G75*
G02*
X151487500Y-128043750I0J-243750D01*
G01*
G37*
%TD.AperFunction*%
%TO.P,C2,1*%
%TO.N,/VBAT*%
%TA.AperFunction,SMDPad,CuDef*%
G36*
G01*
X153362500Y-128043750D02*
X153362500Y-128956250D01*
G75*
G02*
X153118750Y-129200000I-243750J0D01*
G01*
X152631250Y-129200000D01*
G75*
G02*
X152387500Y-128956250I0J243750D01*
G01*
X152387500Y-128043750D01*
G75*
G02*
X152631250Y-127800000I243750J0D01*
G01*
X153118750Y-127800000D01*
G75*
G02*
X153362500Y-128043750I0J-243750D01*
G01*
G37*
%TD.AperFunction*%
%TD*%
%TO.P,D1,1*%
%TO.N,Net-(D1-Pad1)*%
%TA.AperFunction,SMDPad,CuDef*%
G36*
G01*
X150637500Y-118206250D02*
X150637500Y-117293750D01*
G75*
G02*
X150881250Y-117050000I243750J0D01*
G01*
X151368750Y-117050000D01*
G75*
G02*
X151612500Y-117293750I0J-243750D01*
G01*
X151612500Y-118206250D01*
G75*
G02*
X151368750Y-118450000I-243750J0D01*
G01*
X150881250Y-118450000D01*
G75*
G02*
X150637500Y-118206250I0J243750D01*
G01*
G37*
%TD.AperFunction*%
%TO.P,D1,2*%
%TO.N,/VUSB*%
%TA.AperFunction,SMDPad,CuDef*%
G36*
G01*
X152512500Y-118206250D02*
X152512500Y-117293750D01*
G75*
G02*
X152756250Y-117050000I243750J0D01*
G01*
X153243750Y-117050000D01*
G75*
G02*
X153487500Y-117293750I0J-243750D01*
G01*
X153487500Y-118206250D01*
G75*
G02*
X153243750Y-118450000I-243750J0D01*
G01*
X152756250Y-118450000D01*
G75*
G02*
X152512500Y-118206250I0J243750D01*
G01*
G37*
%TD.AperFunction*%
%TD*%
%TO.P,R1,1*%
%TO.N,Net-(R1-Pad1)*%
%TA.AperFunction,SMDPad,CuDef*%
G36*
G01*
X153462500Y-121293750D02*
X153462500Y-122206250D01*
G75*
G02*
X153218750Y-122450000I-243750J0D01*
G01*
X152731250Y-122450000D01*
G75*
G02*
X152487500Y-122206250I0J243750D01*
G01*
X152487500Y-121293750D01*
G75*
G02*
X152731250Y-121050000I243750J0D01*
G01*
X153218750Y-121050000D01*
G75*
G02*
X153462500Y-121293750I0J-243750D01*
G01*
G37*
%TD.AperFunction*%
%TO.P,R1,2*%
%TO.N,GND*%
%TA.AperFunction,SMDPad,CuDef*%
G36*
G01*
X151587500Y-121293750D02*
X151587500Y-122206250D01*
G75*
G02*
X151343750Y-122450000I-243750J0D01*
G01*
X150856250Y-122450000D01*
G75*
G02*
X150612500Y-122206250I0J243750D01*
G01*
X150612500Y-121293750D01*
G75*
G02*
X150856250Y-121050000I243750J0D01*
G01*
X151343750Y-121050000D01*
G75*
G02*
X151587500Y-121293750I0J-243750D01*
G01*
G37*
%TD.AperFunction*%
%TD*%
%TO.P,R2,2*%
%TO.N,Net-(D1-Pad1)*%
%TA.AperFunction,SMDPad,CuDef*%
G36*
G01*
X151612500Y-119293750D02*
X151612500Y-120206250D01*
G75*
G02*
X151368750Y-120450000I-243750J0D01*
G01*
X150881250Y-120450000D01*
G75*
G02*
X150637500Y-120206250I0J243750D01*
G01*
X150637500Y-119293750D01*
G75*
G02*
X150881250Y-119050000I243750J0D01*
G01*
X151368750Y-119050000D01*
G75*
G02*
X151612500Y-119293750I0J-243750D01*
G01*
G37*
%TD.AperFunction*%
%TO.P,R2,1*%
%TO.N,Net-(R2-Pad1)*%
%TA.AperFunction,SMDPad,CuDef*%
G36*
G01*
X153487500Y-119293750D02*
X153487500Y-120206250D01*
G75*
G02*
X153243750Y-120450000I-243750J0D01*
G01*
X152756250Y-120450000D01*
G75*
G02*
X152512500Y-120206250I0J243750D01*
G01*
X152512500Y-119293750D01*
G75*
G02*
X152756250Y-119050000I243750J0D01*
G01*
X153243750Y-119050000D01*
G75*
G02*
X153487500Y-119293750I0J-243750D01*
G01*
G37*
%TD.AperFunction*%
%TD*%
D12*
%TO.P,U1,1*%
%TO.N,Net-(R2-Pad1)*%
X151000000Y-123750000D03*
%TO.P,U1,2*%
%TO.N,GND*%
X151000000Y-124700000D03*
%TO.P,U1,3*%
%TO.N,/VBAT*%
X151000000Y-125650000D03*
%TO.P,U1,4*%
%TO.N,/VUSB*%
X153200000Y-125650000D03*
%TO.P,U1,5*%
%TO.N,Net-(R1-Pad1)*%
X153200000Y-123750000D03*
%TD*%
D13*
%TO.P,J1,3*%
%TO.N,Net-(J1-Pad2)*%
X152675000Y-110000000D03*
%TO.P,J1,4*%
%TO.N,GND*%
X152675000Y-109350000D03*
%TO.P,J1,2*%
%TO.N,Net-(J1-Pad2)*%
X152675000Y-110650000D03*
%TO.P,J1,5*%
%TO.N,GND*%
X152675000Y-108700000D03*
%TO.P,J1,1*%
%TO.N,/VUSB*%
X152675000Y-111300000D03*
D14*
%TO.P,J1,6*%
%TO.N,GND*%
X152425000Y-112800000D03*
X152425000Y-107200000D03*
D15*
X154575000Y-110000000D03*
%TD*%
%TO.P,J2,1*%
%TO.N,/VBAT*%
%TA.AperFunction,ComponentPad*%
G36*
G01*
X155200000Y-142124999D02*
X155200000Y-143375001D01*
G75*
G02*
X154950001Y-143625000I-249999J0D01*
G01*
X154249999Y-143625000D01*
G75*
G02*
X154000000Y-143375001I0J249999D01*
G01*
X154000000Y-142124999D01*
G75*
G02*
X154249999Y-141875000I249999J0D01*
G01*
X154950001Y-141875000D01*
G75*
G02*
X155200000Y-142124999I0J-249999D01*
G01*
G37*
%TD.AperFunction*%
D16*
%TO.P,J2,2*%
%TO.N,GND*%
X152600000Y-142750000D03*
%TD*%
D17*
%TO.P,TP1,1*%
%TO.N,/VUSB*%
X148500000Y-111250000D03*
%TD*%
%TO.P,TP2,1*%
%TO.N,GND*%
X148500000Y-108750000D03*
%TD*%
D18*
%TO.N,/VBAT*%
X152900000Y-127000000D03*
X152200000Y-127000000D03*
%TD*%
D19*
%TO.N,GND*%
X154575000Y-109500000D02*
X154575000Y-110000000D01*
X153775000Y-108700000D02*
X154575000Y-109500000D01*
X152675000Y-108700000D02*
X153775000Y-108700000D01*
X152625000Y-108750000D02*
X152675000Y-108700000D01*
D20*
X149312500Y-115812500D02*
X149250000Y-115750000D01*
X149600000Y-121800000D02*
X149250000Y-121450000D01*
X151100000Y-121750000D02*
X149600000Y-121750000D01*
X149300000Y-115700000D02*
X149250000Y-115750000D01*
X151100000Y-115700000D02*
X149300000Y-115700000D01*
D21*
X149250000Y-124750000D02*
X149250000Y-128500000D01*
X149250000Y-115750000D02*
X149250000Y-124750000D01*
D20*
X150950000Y-124700000D02*
X150900000Y-124750000D01*
X151000000Y-124700000D02*
X150950000Y-124700000D01*
D22*
X149300000Y-124700000D02*
X149250000Y-124750000D01*
X151000000Y-124700000D02*
X149300000Y-124700000D01*
D20*
X151000000Y-128500000D02*
X149250000Y-128500000D01*
D21*
X149250000Y-114000000D02*
X149250000Y-115750000D01*
X152425000Y-112800000D02*
X150450000Y-112800000D01*
X150450000Y-112800000D02*
X149250000Y-114000000D01*
D19*
X150750000Y-108750000D02*
X152625000Y-108750000D01*
X152675000Y-109350000D02*
X150350000Y-109350000D01*
X150350000Y-109350000D02*
X150350000Y-108750000D01*
X148500000Y-108750000D02*
X150350000Y-108750000D01*
X150350000Y-108750000D02*
X150750000Y-108750000D01*
D21*
X152300000Y-141200000D02*
X150200000Y-141200000D01*
X149250000Y-140250000D02*
X149250000Y-128500000D01*
X150200000Y-141200000D02*
X149250000Y-140250000D01*
D19*
%TO.N,Net-(D1-Pad1)*%
X151125000Y-119750000D02*
X151125000Y-117750000D01*
%TO.N,Net-(J1-Pad2)*%
X150300000Y-110600000D02*
X150300000Y-110000000D01*
X152675000Y-110650000D02*
X150350000Y-110650000D01*
X150300000Y-110000000D02*
X152675000Y-110000000D01*
X150350000Y-110650000D02*
X150300000Y-110600000D01*
D20*
%TO.N,Net-(R1-Pad1)*%
X152975000Y-121825000D02*
X152975000Y-122000000D01*
X153200000Y-122200000D02*
X153200000Y-123800000D01*
X152975000Y-121975000D02*
X153200000Y-122200000D01*
D23*
%TO.N,Net-(R2-Pad1)*%
X151000000Y-123750000D02*
X151250000Y-123750000D01*
X151250000Y-123750000D02*
X152000000Y-123000000D01*
X152000000Y-123000000D02*
X152000000Y-121000000D01*
X153000000Y-120000000D02*
X153000000Y-119750000D01*
X152000000Y-121000000D02*
X153000000Y-120000000D01*
D19*
%TO.N,/VUSB*%
X153300000Y-111300000D02*
X154000000Y-112000000D01*
X152675000Y-111300000D02*
X153300000Y-111300000D01*
D22*
X155000000Y-113000000D02*
X154000000Y-112000000D01*
D19*
X152625000Y-111250000D02*
X152675000Y-111300000D01*
X148500000Y-111250000D02*
X152625000Y-111250000D01*
D22*
X155000000Y-113000000D02*
X155000000Y-115700000D01*
D20*
X152975000Y-115700000D02*
X155000000Y-115700000D01*
D19*
X153000000Y-117750000D02*
X154850000Y-117750000D01*
D22*
X155000000Y-115700000D02*
X155000000Y-117600000D01*
D19*
X154850000Y-117750000D02*
X155000000Y-117600000D01*
D22*
X154000000Y-125700000D02*
X153200000Y-125700000D01*
X155000000Y-117600000D02*
X155000000Y-124700000D01*
X155000000Y-124700000D02*
X154000000Y-125700000D01*
%TO.N,/VBAT*%
X151000000Y-125650000D02*
X151000000Y-126400000D01*
X151600000Y-127000000D02*
X152900000Y-127000000D01*
X151000000Y-126400000D02*
X151600000Y-127000000D01*
D20*
X152875000Y-127025000D02*
X152900000Y-127000000D01*
X152875000Y-128500000D02*
X152875000Y-127025000D01*
%TD*%
M02*
