%TF.GenerationSoftware,KiCad,Pcbnew,(5.1.6)-1*%
%TF.CreationDate,2020-12-02T11:33:45-05:00*%
%TF.ProjectId,HP_classic,48505f63-6c61-4737-9369-632e6b696361,2*%
%TF.SameCoordinates,Original*%
%TF.FileFunction,Copper,L1,Top*%
%TF.FilePolarity,Positive*%
%FSLAX46Y46*%
G04 Gerber Fmt 4.6, Leading zero omitted, Abs format (unit mm)*
G04 Created by KiCad (PCBNEW (5.1.6)-1) date 2020-12-02 11:33:45*
%MOMM*%
%LPD*%
G01*
G04 APERTURE LIST*
%TA.AperFunction,SMDPad,CuDef*%
%ADD10R,1.300000X0.650000*%
%TD*%
%TA.AperFunction,ComponentPad*%
%ADD11R,1.700000X1.700000*%
%TD*%
%TA.AperFunction,ComponentPad*%
%ADD12O,1.700000X1.700000*%
%TD*%
%TA.AperFunction,SMDPad,CuDef*%
%ADD13R,1.500000X0.450000*%
%TD*%
%TA.AperFunction,ComponentPad*%
%ADD14O,1.100000X1.800000*%
%TD*%
%TA.AperFunction,ComponentPad*%
%ADD15O,1.100000X2.200000*%
%TD*%
%TA.AperFunction,ComponentPad*%
%ADD16O,1.200000X1.750000*%
%TD*%
%TA.AperFunction,SMDPad,CuDef*%
%ADD17C,1.500000*%
%TD*%
%TA.AperFunction,ViaPad*%
%ADD18C,1.000000*%
%TD*%
%TA.AperFunction,Conductor*%
%ADD19C,1.000000*%
%TD*%
%TA.AperFunction,Conductor*%
%ADD20C,0.350000*%
%TD*%
%TA.AperFunction,Conductor*%
%ADD21C,0.700000*%
%TD*%
%TA.AperFunction,Conductor*%
%ADD22C,0.500000*%
%TD*%
%TA.AperFunction,Conductor*%
%ADD23C,0.250000*%
%TD*%
G04 APERTURE END LIST*
D10*
%TO.P,U1,1*%
%TO.N,Net-(R2-Pad1)*%
X151400000Y-123800000D03*
%TO.P,U1,2*%
%TO.N,GND*%
X151400000Y-124750000D03*
%TO.P,U1,3*%
%TO.N,/VBAT*%
X151400000Y-125700000D03*
%TO.P,U1,4*%
%TO.N,/VUSB*%
X153600000Y-125700000D03*
%TO.P,U1,5*%
%TO.N,Net-(R1-Pad1)*%
X153600000Y-123800000D03*
%TD*%
D11*
%TO.P,J3,1*%
%TO.N,/VBAT*%
X152300000Y-141200000D03*
D12*
%TO.P,J3,2*%
%TO.N,GND*%
X154840000Y-141200000D03*
%TD*%
%TO.P,C1,2*%
%TO.N,GND*%
%TA.AperFunction,SMDPad,CuDef*%
G36*
G01*
X151812500Y-115293750D02*
X151812500Y-116206250D01*
G75*
G02*
X151568750Y-116450000I-243750J0D01*
G01*
X151081250Y-116450000D01*
G75*
G02*
X150837500Y-116206250I0J243750D01*
G01*
X150837500Y-115293750D01*
G75*
G02*
X151081250Y-115050000I243750J0D01*
G01*
X151568750Y-115050000D01*
G75*
G02*
X151812500Y-115293750I0J-243750D01*
G01*
G37*
%TD.AperFunction*%
%TO.P,C1,1*%
%TO.N,/VUSB*%
%TA.AperFunction,SMDPad,CuDef*%
G36*
G01*
X153687500Y-115293750D02*
X153687500Y-116206250D01*
G75*
G02*
X153443750Y-116450000I-243750J0D01*
G01*
X152956250Y-116450000D01*
G75*
G02*
X152712500Y-116206250I0J243750D01*
G01*
X152712500Y-115293750D01*
G75*
G02*
X152956250Y-115050000I243750J0D01*
G01*
X153443750Y-115050000D01*
G75*
G02*
X153687500Y-115293750I0J-243750D01*
G01*
G37*
%TD.AperFunction*%
%TD*%
%TO.P,D1,1*%
%TO.N,Net-(D1-Pad1)*%
%TA.AperFunction,SMDPad,CuDef*%
G36*
G01*
X150875000Y-118206250D02*
X150875000Y-117293750D01*
G75*
G02*
X151118750Y-117050000I243750J0D01*
G01*
X151606250Y-117050000D01*
G75*
G02*
X151850000Y-117293750I0J-243750D01*
G01*
X151850000Y-118206250D01*
G75*
G02*
X151606250Y-118450000I-243750J0D01*
G01*
X151118750Y-118450000D01*
G75*
G02*
X150875000Y-118206250I0J243750D01*
G01*
G37*
%TD.AperFunction*%
%TO.P,D1,2*%
%TO.N,/VUSB*%
%TA.AperFunction,SMDPad,CuDef*%
G36*
G01*
X152750000Y-118206250D02*
X152750000Y-117293750D01*
G75*
G02*
X152993750Y-117050000I243750J0D01*
G01*
X153481250Y-117050000D01*
G75*
G02*
X153725000Y-117293750I0J-243750D01*
G01*
X153725000Y-118206250D01*
G75*
G02*
X153481250Y-118450000I-243750J0D01*
G01*
X152993750Y-118450000D01*
G75*
G02*
X152750000Y-118206250I0J243750D01*
G01*
G37*
%TD.AperFunction*%
%TD*%
%TO.P,R1,1*%
%TO.N,Net-(R1-Pad1)*%
%TA.AperFunction,SMDPad,CuDef*%
G36*
G01*
X153725000Y-121293750D02*
X153725000Y-122206250D01*
G75*
G02*
X153481250Y-122450000I-243750J0D01*
G01*
X152993750Y-122450000D01*
G75*
G02*
X152750000Y-122206250I0J243750D01*
G01*
X152750000Y-121293750D01*
G75*
G02*
X152993750Y-121050000I243750J0D01*
G01*
X153481250Y-121050000D01*
G75*
G02*
X153725000Y-121293750I0J-243750D01*
G01*
G37*
%TD.AperFunction*%
%TO.P,R1,2*%
%TO.N,GND*%
%TA.AperFunction,SMDPad,CuDef*%
G36*
G01*
X151850000Y-121293750D02*
X151850000Y-122206250D01*
G75*
G02*
X151606250Y-122450000I-243750J0D01*
G01*
X151118750Y-122450000D01*
G75*
G02*
X150875000Y-122206250I0J243750D01*
G01*
X150875000Y-121293750D01*
G75*
G02*
X151118750Y-121050000I243750J0D01*
G01*
X151606250Y-121050000D01*
G75*
G02*
X151850000Y-121293750I0J-243750D01*
G01*
G37*
%TD.AperFunction*%
%TD*%
%TO.P,R2,2*%
%TO.N,Net-(D1-Pad1)*%
%TA.AperFunction,SMDPad,CuDef*%
G36*
G01*
X151850000Y-119293750D02*
X151850000Y-120206250D01*
G75*
G02*
X151606250Y-120450000I-243750J0D01*
G01*
X151118750Y-120450000D01*
G75*
G02*
X150875000Y-120206250I0J243750D01*
G01*
X150875000Y-119293750D01*
G75*
G02*
X151118750Y-119050000I243750J0D01*
G01*
X151606250Y-119050000D01*
G75*
G02*
X151850000Y-119293750I0J-243750D01*
G01*
G37*
%TD.AperFunction*%
%TO.P,R2,1*%
%TO.N,Net-(R2-Pad1)*%
%TA.AperFunction,SMDPad,CuDef*%
G36*
G01*
X153725000Y-119293750D02*
X153725000Y-120206250D01*
G75*
G02*
X153481250Y-120450000I-243750J0D01*
G01*
X152993750Y-120450000D01*
G75*
G02*
X152750000Y-120206250I0J243750D01*
G01*
X152750000Y-119293750D01*
G75*
G02*
X152993750Y-119050000I243750J0D01*
G01*
X153481250Y-119050000D01*
G75*
G02*
X153725000Y-119293750I0J-243750D01*
G01*
G37*
%TD.AperFunction*%
%TD*%
D13*
%TO.P,J1,3*%
%TO.N,Net-(J1-Pad2)*%
X154325000Y-110000000D03*
%TO.P,J1,4*%
%TO.N,GND*%
X154325000Y-110650000D03*
%TO.P,J1,2*%
%TO.N,Net-(J1-Pad2)*%
X154325000Y-109350000D03*
%TO.P,J1,5*%
%TO.N,GND*%
X154325000Y-111300000D03*
%TO.P,J1,1*%
%TO.N,/VUSB*%
X154325000Y-108700000D03*
D14*
%TO.P,J1,6*%
%TO.N,GND*%
X154575000Y-107200000D03*
X154575000Y-112800000D03*
D15*
X152425000Y-110000000D03*
%TD*%
%TO.P,J2,1*%
%TO.N,GND*%
%TA.AperFunction,ComponentPad*%
G36*
G01*
X155200000Y-142124999D02*
X155200000Y-143375001D01*
G75*
G02*
X154950001Y-143625000I-249999J0D01*
G01*
X154249999Y-143625000D01*
G75*
G02*
X154000000Y-143375001I0J249999D01*
G01*
X154000000Y-142124999D01*
G75*
G02*
X154249999Y-141875000I249999J0D01*
G01*
X154950001Y-141875000D01*
G75*
G02*
X155200000Y-142124999I0J-249999D01*
G01*
G37*
%TD.AperFunction*%
D16*
%TO.P,J2,2*%
%TO.N,/VBAT*%
X152600000Y-142750000D03*
%TD*%
D17*
%TO.P,TP1,1*%
%TO.N,/VUSB*%
X155250000Y-115700000D03*
%TD*%
%TO.P,TP2,1*%
%TO.N,/VBAT*%
X155250000Y-128750000D03*
%TD*%
%TO.P,C2,1*%
%TO.N,/VBAT*%
%TA.AperFunction,SMDPad,CuDef*%
G36*
G01*
X153687500Y-127443750D02*
X153687500Y-128356250D01*
G75*
G02*
X153443750Y-128600000I-243750J0D01*
G01*
X152956250Y-128600000D01*
G75*
G02*
X152712500Y-128356250I0J243750D01*
G01*
X152712500Y-127443750D01*
G75*
G02*
X152956250Y-127200000I243750J0D01*
G01*
X153443750Y-127200000D01*
G75*
G02*
X153687500Y-127443750I0J-243750D01*
G01*
G37*
%TD.AperFunction*%
%TO.P,C2,2*%
%TO.N,GND*%
%TA.AperFunction,SMDPad,CuDef*%
G36*
G01*
X151812500Y-127443750D02*
X151812500Y-128356250D01*
G75*
G02*
X151568750Y-128600000I-243750J0D01*
G01*
X151081250Y-128600000D01*
G75*
G02*
X150837500Y-128356250I0J243750D01*
G01*
X150837500Y-127443750D01*
G75*
G02*
X151081250Y-127200000I243750J0D01*
G01*
X151568750Y-127200000D01*
G75*
G02*
X151812500Y-127443750I0J-243750D01*
G01*
G37*
%TD.AperFunction*%
%TD*%
D18*
%TO.N,/VBAT*%
X154750000Y-127000000D03*
X155500000Y-127000000D03*
X156250000Y-127000000D03*
%TD*%
D19*
%TO.N,GND*%
X154600000Y-141440000D02*
X154840000Y-141200000D01*
X149250000Y-121500000D02*
X149250000Y-115500000D01*
X149250000Y-124500000D02*
X149250000Y-121500000D01*
X149250000Y-127500000D02*
X149250000Y-124500000D01*
D20*
X154325000Y-110650000D02*
X155750000Y-110650000D01*
X155750000Y-110650000D02*
X156000000Y-110900000D01*
X156000000Y-110900000D02*
X156000000Y-111300000D01*
X156000000Y-111300000D02*
X154325000Y-111300000D01*
X156000000Y-111300000D02*
X156000000Y-112300000D01*
X155500000Y-112800000D02*
X154575000Y-112800000D01*
X156000000Y-112300000D02*
X155500000Y-112800000D01*
D21*
X150550000Y-112800000D02*
X150500000Y-112750000D01*
D22*
X149500000Y-115750000D02*
X149250000Y-115500000D01*
X151325000Y-115750000D02*
X149500000Y-115750000D01*
X149500000Y-124750000D02*
X149250000Y-124500000D01*
X151400000Y-124750000D02*
X149500000Y-124750000D01*
X149400000Y-127900000D02*
X149250000Y-128050000D01*
X151325000Y-127900000D02*
X149400000Y-127900000D01*
D19*
X149250000Y-128050000D02*
X149250000Y-127500000D01*
X150550000Y-112800000D02*
X154575000Y-112800000D01*
X149250000Y-114000000D02*
X150550000Y-112800000D01*
X149250000Y-115500000D02*
X149250000Y-114000000D01*
X154840000Y-134840000D02*
X154840000Y-141200000D01*
X149250000Y-129250000D02*
X150750000Y-130750000D01*
X153250000Y-130750000D02*
X154840000Y-132340000D01*
X149250000Y-127500000D02*
X149250000Y-129250000D01*
X150750000Y-130750000D02*
X153250000Y-130750000D01*
X154840000Y-132340000D02*
X154840000Y-134840000D01*
D20*
X151362500Y-121750000D02*
X149250000Y-121750000D01*
%TO.N,Net-(D1-Pad1)*%
X151362500Y-117750000D02*
X151362500Y-119750000D01*
%TO.N,Net-(J1-Pad2)*%
X155750000Y-109350000D02*
X156100000Y-109700000D01*
X156100000Y-109700000D02*
X155800000Y-110000000D01*
X154325000Y-109350000D02*
X155750000Y-109350000D01*
X155800000Y-110000000D02*
X154325000Y-110000000D01*
%TO.N,Net-(R1-Pad1)*%
X153200000Y-122750000D02*
X153200000Y-121812500D01*
X153550000Y-123800000D02*
X153550000Y-123100000D01*
X153550000Y-123100000D02*
X153200000Y-122750000D01*
%TO.N,Net-(R2-Pad1)*%
X152937500Y-119750000D02*
X152937500Y-119662500D01*
D23*
X151150000Y-123800000D02*
X151200000Y-123800000D01*
D20*
X151500000Y-123800000D02*
X152300000Y-123000000D01*
X152300000Y-120687500D02*
X153237500Y-119750000D01*
X152300000Y-123000000D02*
X152300000Y-120687500D01*
%TO.N,/VUSB*%
X154325000Y-108700000D02*
X156450000Y-108700000D01*
D22*
X153200000Y-115750000D02*
X155250000Y-115700000D01*
D20*
X153237500Y-117750000D02*
X155250000Y-117750000D01*
D21*
X157200000Y-109450000D02*
X157200000Y-109500000D01*
X157250000Y-109550000D02*
X157250000Y-114750000D01*
X156450000Y-108700000D02*
X157200000Y-109450000D01*
X157200000Y-109500000D02*
X157250000Y-109550000D01*
X156300000Y-115700000D02*
X155250000Y-115700000D01*
X157250000Y-114750000D02*
X156300000Y-115700000D01*
D22*
X154750000Y-125700000D02*
X153350000Y-125700000D01*
D21*
X154750000Y-125700000D02*
X154800000Y-125700000D01*
X155250000Y-125250000D02*
X155250000Y-115700000D01*
X154800000Y-125700000D02*
X155250000Y-125250000D01*
D22*
%TO.N,/VBAT*%
X151400000Y-125700000D02*
X151400000Y-126400000D01*
X151400000Y-126400000D02*
X151600000Y-126600000D01*
X153200000Y-126600000D02*
X153200000Y-127900000D01*
X151600000Y-126600000D02*
X153200000Y-126600000D01*
D19*
X154800000Y-127000000D02*
X155250000Y-127000000D01*
D22*
X154150000Y-127000000D02*
X154750000Y-127000000D01*
X153200000Y-126600000D02*
X153750000Y-126600000D01*
X153750000Y-126600000D02*
X154150000Y-127000000D01*
D20*
X155250000Y-127000000D02*
X155250000Y-128750000D01*
D19*
X156250000Y-127000000D02*
X155500000Y-127000000D01*
%TD*%
M02*
