%TF.GenerationSoftware,KiCad,Pcbnew,(5.1.6)-1*%
%TF.CreationDate,2020-11-11T17:37:01-05:00*%
%TF.ProjectId,HP_classic,48505f63-6c61-4737-9369-632e6b696361,rev?*%
%TF.SameCoordinates,Original*%
%TF.FileFunction,Soldermask,Bot*%
%TF.FilePolarity,Negative*%
%FSLAX46Y46*%
G04 Gerber Fmt 4.6, Leading zero omitted, Abs format (unit mm)*
G04 Created by KiCad (PCBNEW (5.1.6)-1) date 2020-11-11 17:37:01*
%MOMM*%
%LPD*%
G01*
G04 APERTURE LIST*
%ADD10C,0.100000*%
%ADD11R,1.800000X1.800000*%
%ADD12O,1.800000X1.800000*%
%ADD13O,1.200000X1.900000*%
%ADD14O,1.200000X2.300000*%
%ADD15O,1.300000X1.850000*%
%ADD16C,2.100000*%
G04 APERTURE END LIST*
D10*
G36*
X172000000Y-122000000D02*
G01*
X152000000Y-122000000D01*
X152000000Y-114000000D01*
X153000000Y-114000000D01*
X153500000Y-113500000D01*
X153500000Y-113000000D01*
X172000000Y-113000000D01*
X172000000Y-122000000D01*
G37*
X172000000Y-122000000D02*
X152000000Y-122000000D01*
X152000000Y-114000000D01*
X153000000Y-114000000D01*
X153500000Y-113500000D01*
X153500000Y-113000000D01*
X172000000Y-113000000D01*
X172000000Y-122000000D01*
G36*
X172000000Y-137000000D02*
G01*
X152000000Y-137000000D01*
X152000000Y-128000000D01*
X172000000Y-128000000D01*
X172000000Y-137000000D01*
G37*
X172000000Y-137000000D02*
X152000000Y-137000000D01*
X152000000Y-128000000D01*
X172000000Y-128000000D01*
X172000000Y-137000000D01*
D11*
%TO.C,J3*%
X152300000Y-141200000D03*
D12*
X154840000Y-141200000D03*
%TD*%
D13*
%TO.C,J1*%
X152425000Y-112800000D03*
X152425000Y-107200000D03*
D14*
X154575000Y-110000000D03*
%TD*%
%TO.C,J2*%
G36*
G01*
X155250000Y-142095832D02*
X155250000Y-143404168D01*
G75*
G02*
X154979168Y-143675000I-270832J0D01*
G01*
X154220832Y-143675000D01*
G75*
G02*
X153950000Y-143404168I0J270832D01*
G01*
X153950000Y-142095832D01*
G75*
G02*
X154220832Y-141825000I270832J0D01*
G01*
X154979168Y-141825000D01*
G75*
G02*
X155250000Y-142095832I0J-270832D01*
G01*
G37*
D15*
X152600000Y-142750000D03*
%TD*%
D16*
%TO.C,H1*%
X189000000Y-108000000D03*
%TD*%
%TO.C,H2*%
X169000000Y-108000000D03*
%TD*%
%TO.C,H3*%
X189000000Y-142000000D03*
%TD*%
%TO.C,H4*%
X169000000Y-142000000D03*
%TD*%
M02*
