%TF.GenerationSoftware,KiCad,Pcbnew,(5.1.6)-1*%
%TF.CreationDate,2020-11-11T17:37:01-05:00*%
%TF.ProjectId,HP_classic,48505f63-6c61-4737-9369-632e6b696361,rev?*%
%TF.SameCoordinates,Original*%
%TF.FileFunction,Legend,Top*%
%TF.FilePolarity,Positive*%
%FSLAX46Y46*%
G04 Gerber Fmt 4.6, Leading zero omitted, Abs format (unit mm)*
G04 Created by KiCad (PCBNEW (5.1.6)-1) date 2020-11-11 17:37:01*
%MOMM*%
%LPD*%
G01*
G04 APERTURE LIST*
%ADD10C,0.150000*%
%ADD11C,0.300000*%
%ADD12C,0.400000*%
%ADD13C,0.200000*%
%ADD14C,0.250000*%
%ADD15C,0.120000*%
G04 APERTURE END LIST*
D10*
X152702380Y-135738095D02*
X151702380Y-135738095D01*
X152702380Y-135166666D01*
X151702380Y-135166666D01*
X152178571Y-134690476D02*
X152178571Y-134357142D01*
X152702380Y-134214285D02*
X152702380Y-134690476D01*
X151702380Y-134690476D01*
X151702380Y-134214285D01*
X151750000Y-133261904D02*
X151702380Y-133357142D01*
X151702380Y-133500000D01*
X151750000Y-133642857D01*
X151845238Y-133738095D01*
X151940476Y-133785714D01*
X152130952Y-133833333D01*
X152273809Y-133833333D01*
X152464285Y-133785714D01*
X152559523Y-133738095D01*
X152654761Y-133642857D01*
X152702380Y-133500000D01*
X152702380Y-133404761D01*
X152654761Y-133261904D01*
X152607142Y-133214285D01*
X152273809Y-133214285D01*
X152273809Y-133404761D01*
X155202380Y-135761904D02*
X154202380Y-135761904D01*
X154202380Y-135380952D01*
X154250000Y-135285714D01*
X154297619Y-135238095D01*
X154392857Y-135190476D01*
X154535714Y-135190476D01*
X154630952Y-135238095D01*
X154678571Y-135285714D01*
X154726190Y-135380952D01*
X154726190Y-135761904D01*
X154202380Y-134571428D02*
X154202380Y-134380952D01*
X154250000Y-134285714D01*
X154345238Y-134190476D01*
X154535714Y-134142857D01*
X154869047Y-134142857D01*
X155059523Y-134190476D01*
X155154761Y-134285714D01*
X155202380Y-134380952D01*
X155202380Y-134571428D01*
X155154761Y-134666666D01*
X155059523Y-134761904D01*
X154869047Y-134809523D01*
X154535714Y-134809523D01*
X154345238Y-134761904D01*
X154250000Y-134666666D01*
X154202380Y-134571428D01*
X155154761Y-133761904D02*
X155202380Y-133619047D01*
X155202380Y-133380952D01*
X155154761Y-133285714D01*
X155107142Y-133238095D01*
X155011904Y-133190476D01*
X154916666Y-133190476D01*
X154821428Y-133238095D01*
X154773809Y-133285714D01*
X154726190Y-133380952D01*
X154678571Y-133571428D01*
X154630952Y-133666666D01*
X154583333Y-133714285D01*
X154488095Y-133761904D01*
X154392857Y-133761904D01*
X154297619Y-133714285D01*
X154250000Y-133666666D01*
X154202380Y-133571428D01*
X154202380Y-133333333D01*
X154250000Y-133190476D01*
D11*
X159000000Y-140000000D02*
X159000000Y-110000000D01*
X199000000Y-140000000D02*
X159000000Y-140000000D01*
X199000000Y-110000000D02*
X199000000Y-140000000D01*
X159000000Y-110000000D02*
X199000000Y-110000000D01*
D12*
X168071428Y-122204761D02*
X169309523Y-122204761D01*
X168642857Y-122966666D01*
X168928571Y-122966666D01*
X169119047Y-123061904D01*
X169214285Y-123157142D01*
X169309523Y-123347619D01*
X169309523Y-123823809D01*
X169214285Y-124014285D01*
X169119047Y-124109523D01*
X168928571Y-124204761D01*
X168357142Y-124204761D01*
X168166666Y-124109523D01*
X168071428Y-124014285D01*
X170166666Y-124014285D02*
X170261904Y-124109523D01*
X170166666Y-124204761D01*
X170071428Y-124109523D01*
X170166666Y-124014285D01*
X170166666Y-124204761D01*
X170928571Y-122204761D02*
X172261904Y-122204761D01*
X171404761Y-124204761D01*
X172738095Y-122204761D02*
X173404761Y-124204761D01*
X174071428Y-122204761D01*
X177214285Y-124204761D02*
X176261904Y-124204761D01*
X176261904Y-122204761D01*
X177880952Y-124204761D02*
X177880952Y-122871428D01*
X177880952Y-122204761D02*
X177785714Y-122300000D01*
X177880952Y-122395238D01*
X177976190Y-122300000D01*
X177880952Y-122204761D01*
X177880952Y-122395238D01*
X178833333Y-124204761D02*
X178833333Y-122204761D01*
X179595238Y-122204761D01*
X179785714Y-122300000D01*
X179880952Y-122395238D01*
X179976190Y-122585714D01*
X179976190Y-122871428D01*
X179880952Y-123061904D01*
X179785714Y-123157142D01*
X179595238Y-123252380D01*
X178833333Y-123252380D01*
X181119047Y-124204761D02*
X180928571Y-124109523D01*
X180833333Y-124014285D01*
X180738095Y-123823809D01*
X180738095Y-123252380D01*
X180833333Y-123061904D01*
X180928571Y-122966666D01*
X181119047Y-122871428D01*
X181404761Y-122871428D01*
X181595238Y-122966666D01*
X181690476Y-123061904D01*
X181785714Y-123252380D01*
X181785714Y-123823809D01*
X181690476Y-124014285D01*
X181595238Y-124109523D01*
X181404761Y-124204761D01*
X181119047Y-124204761D01*
X184547619Y-122204761D02*
X184928571Y-122204761D01*
X185119047Y-122300000D01*
X185309523Y-122490476D01*
X185404761Y-122871428D01*
X185404761Y-123538095D01*
X185309523Y-123919047D01*
X185119047Y-124109523D01*
X184928571Y-124204761D01*
X184547619Y-124204761D01*
X184357142Y-124109523D01*
X184166666Y-123919047D01*
X184071428Y-123538095D01*
X184071428Y-122871428D01*
X184166666Y-122490476D01*
X184357142Y-122300000D01*
X184547619Y-122204761D01*
X186261904Y-124204761D02*
X186261904Y-122204761D01*
X187404761Y-124204761D01*
X187404761Y-122204761D01*
X189309523Y-124204761D02*
X188357142Y-124204761D01*
X188357142Y-122204761D01*
X190357142Y-123252380D02*
X190357142Y-124204761D01*
X189690476Y-122204761D02*
X190357142Y-123252380D01*
X191023809Y-122204761D01*
X162642857Y-125795238D02*
X162738095Y-125700000D01*
X162928571Y-125604761D01*
X163404761Y-125604761D01*
X163595238Y-125700000D01*
X163690476Y-125795238D01*
X163785714Y-125985714D01*
X163785714Y-126176190D01*
X163690476Y-126461904D01*
X162547619Y-127604761D01*
X163785714Y-127604761D01*
X165023809Y-125604761D02*
X165214285Y-125604761D01*
X165404761Y-125700000D01*
X165499999Y-125795238D01*
X165595238Y-125985714D01*
X165690476Y-126366666D01*
X165690476Y-126842857D01*
X165595238Y-127223809D01*
X165499999Y-127414285D01*
X165404761Y-127509523D01*
X165214285Y-127604761D01*
X165023809Y-127604761D01*
X164833333Y-127509523D01*
X164738095Y-127414285D01*
X164642857Y-127223809D01*
X164547619Y-126842857D01*
X164547619Y-126366666D01*
X164642857Y-125985714D01*
X164738095Y-125795238D01*
X164833333Y-125700000D01*
X165023809Y-125604761D01*
X166928571Y-125604761D02*
X167119047Y-125604761D01*
X167309523Y-125700000D01*
X167404761Y-125795238D01*
X167499999Y-125985714D01*
X167595238Y-126366666D01*
X167595238Y-126842857D01*
X167499999Y-127223809D01*
X167404761Y-127414285D01*
X167309523Y-127509523D01*
X167119047Y-127604761D01*
X166928571Y-127604761D01*
X166738095Y-127509523D01*
X166642857Y-127414285D01*
X166547619Y-127223809D01*
X166452380Y-126842857D01*
X166452380Y-126366666D01*
X166547619Y-125985714D01*
X166642857Y-125795238D01*
X166738095Y-125700000D01*
X166928571Y-125604761D01*
X168452380Y-127604761D02*
X168452380Y-126271428D01*
X168452380Y-126461904D02*
X168547619Y-126366666D01*
X168738095Y-126271428D01*
X169023809Y-126271428D01*
X169214285Y-126366666D01*
X169309523Y-126557142D01*
X169309523Y-127604761D01*
X169309523Y-126557142D02*
X169404761Y-126366666D01*
X169595238Y-126271428D01*
X169880952Y-126271428D01*
X170071428Y-126366666D01*
X170166666Y-126557142D01*
X170166666Y-127604761D01*
X171023809Y-127033333D02*
X171976190Y-127033333D01*
X170833333Y-127604761D02*
X171499999Y-125604761D01*
X172166666Y-127604761D01*
X175500000Y-127414285D02*
X175404761Y-127509523D01*
X175119047Y-127604761D01*
X174928571Y-127604761D01*
X174642857Y-127509523D01*
X174452380Y-127319047D01*
X174357142Y-127128571D01*
X174261904Y-126747619D01*
X174261904Y-126461904D01*
X174357142Y-126080952D01*
X174452380Y-125890476D01*
X174642857Y-125700000D01*
X174928571Y-125604761D01*
X175119047Y-125604761D01*
X175404761Y-125700000D01*
X175500000Y-125795238D01*
X176357142Y-127604761D02*
X176357142Y-125604761D01*
X177214285Y-127604761D02*
X177214285Y-126557142D01*
X177119047Y-126366666D01*
X176928571Y-126271428D01*
X176642857Y-126271428D01*
X176452380Y-126366666D01*
X176357142Y-126461904D01*
X179023809Y-127604761D02*
X179023809Y-126557142D01*
X178928571Y-126366666D01*
X178738095Y-126271428D01*
X178357142Y-126271428D01*
X178166666Y-126366666D01*
X179023809Y-127509523D02*
X178833333Y-127604761D01*
X178357142Y-127604761D01*
X178166666Y-127509523D01*
X178071428Y-127319047D01*
X178071428Y-127128571D01*
X178166666Y-126938095D01*
X178357142Y-126842857D01*
X178833333Y-126842857D01*
X179023809Y-126747619D01*
X179976190Y-127604761D02*
X179976190Y-126271428D01*
X179976190Y-126652380D02*
X180071428Y-126461904D01*
X180166666Y-126366666D01*
X180357142Y-126271428D01*
X180547619Y-126271428D01*
X182071428Y-126271428D02*
X182071428Y-127890476D01*
X181976190Y-128080952D01*
X181880952Y-128176190D01*
X181690476Y-128271428D01*
X181404761Y-128271428D01*
X181214285Y-128176190D01*
X182071428Y-127509523D02*
X181880952Y-127604761D01*
X181500000Y-127604761D01*
X181309523Y-127509523D01*
X181214285Y-127414285D01*
X181119047Y-127223809D01*
X181119047Y-126652380D01*
X181214285Y-126461904D01*
X181309523Y-126366666D01*
X181500000Y-126271428D01*
X181880952Y-126271428D01*
X182071428Y-126366666D01*
X183785714Y-127509523D02*
X183595238Y-127604761D01*
X183214285Y-127604761D01*
X183023809Y-127509523D01*
X182928571Y-127319047D01*
X182928571Y-126557142D01*
X183023809Y-126366666D01*
X183214285Y-126271428D01*
X183595238Y-126271428D01*
X183785714Y-126366666D01*
X183880952Y-126557142D01*
X183880952Y-126747619D01*
X182928571Y-126938095D01*
X187404761Y-127414285D02*
X187309523Y-127509523D01*
X187023809Y-127604761D01*
X186833333Y-127604761D01*
X186547619Y-127509523D01*
X186357142Y-127319047D01*
X186261904Y-127128571D01*
X186166666Y-126747619D01*
X186166666Y-126461904D01*
X186261904Y-126080952D01*
X186357142Y-125890476D01*
X186547619Y-125700000D01*
X186833333Y-125604761D01*
X187023809Y-125604761D01*
X187309523Y-125700000D01*
X187404761Y-125795238D01*
X189119047Y-126271428D02*
X189119047Y-127604761D01*
X188261904Y-126271428D02*
X188261904Y-127319047D01*
X188357142Y-127509523D01*
X188547619Y-127604761D01*
X188833333Y-127604761D01*
X189023809Y-127509523D01*
X189119047Y-127414285D01*
X190071428Y-127604761D02*
X190071428Y-126271428D01*
X190071428Y-126652380D02*
X190166666Y-126461904D01*
X190261904Y-126366666D01*
X190452380Y-126271428D01*
X190642857Y-126271428D01*
X191309523Y-127604761D02*
X191309523Y-126271428D01*
X191309523Y-126652380D02*
X191404761Y-126461904D01*
X191500000Y-126366666D01*
X191690476Y-126271428D01*
X191880952Y-126271428D01*
X193309523Y-127509523D02*
X193119047Y-127604761D01*
X192738095Y-127604761D01*
X192547619Y-127509523D01*
X192452380Y-127319047D01*
X192452380Y-126557142D01*
X192547619Y-126366666D01*
X192738095Y-126271428D01*
X193119047Y-126271428D01*
X193309523Y-126366666D01*
X193404761Y-126557142D01*
X193404761Y-126747619D01*
X192452380Y-126938095D01*
X194261904Y-126271428D02*
X194261904Y-127604761D01*
X194261904Y-126461904D02*
X194357142Y-126366666D01*
X194547619Y-126271428D01*
X194833333Y-126271428D01*
X195023809Y-126366666D01*
X195119047Y-126557142D01*
X195119047Y-127604761D01*
X195785714Y-126271428D02*
X196547619Y-126271428D01*
X196071428Y-125604761D02*
X196071428Y-127319047D01*
X196166666Y-127509523D01*
X196357142Y-127604761D01*
X196547619Y-127604761D01*
D13*
X155842857Y-110442857D02*
X155842857Y-111014285D01*
X156414285Y-111071428D01*
X156357142Y-111014285D01*
X156300000Y-110900000D01*
X156300000Y-110614285D01*
X156357142Y-110500000D01*
X156414285Y-110442857D01*
X156528571Y-110385714D01*
X156814285Y-110385714D01*
X156928571Y-110442857D01*
X156985714Y-110500000D01*
X157042857Y-110614285D01*
X157042857Y-110900000D01*
X156985714Y-111014285D01*
X156928571Y-111071428D01*
X155842857Y-110042857D02*
X157042857Y-109642857D01*
X155842857Y-109242857D01*
X157042857Y-107300000D02*
X157042857Y-107985714D01*
X157042857Y-107642857D02*
X155842857Y-107642857D01*
X156014285Y-107757142D01*
X156128571Y-107871428D01*
X156185714Y-107985714D01*
X155842857Y-106900000D02*
X157042857Y-106614285D01*
X156185714Y-106385714D01*
X157042857Y-106157142D01*
X155842857Y-105871428D01*
D14*
X155000000Y-117750000D02*
X155000000Y-119750000D01*
X154000000Y-117750000D02*
X155000000Y-117750000D01*
X155464285Y-128526190D02*
X155526190Y-128588095D01*
X155588095Y-128773809D01*
X155588095Y-128897619D01*
X155526190Y-129083333D01*
X155402380Y-129207142D01*
X155278571Y-129269047D01*
X155030952Y-129330952D01*
X154845238Y-129330952D01*
X154597619Y-129269047D01*
X154473809Y-129207142D01*
X154350000Y-129083333D01*
X154288095Y-128897619D01*
X154288095Y-128773809D01*
X154350000Y-128588095D01*
X154411904Y-128526190D01*
X155588095Y-127969047D02*
X154288095Y-127969047D01*
X154907142Y-127969047D02*
X154907142Y-127226190D01*
X155588095Y-127226190D02*
X154288095Y-127226190D01*
X155216666Y-126669047D02*
X155216666Y-126050000D01*
X155588095Y-126792857D02*
X154288095Y-126359523D01*
X155588095Y-125926190D01*
X155588095Y-124750000D02*
X154969047Y-125183333D01*
X155588095Y-125492857D02*
X154288095Y-125492857D01*
X154288095Y-124997619D01*
X154350000Y-124873809D01*
X154411904Y-124811904D01*
X154535714Y-124750000D01*
X154721428Y-124750000D01*
X154845238Y-124811904D01*
X154907142Y-124873809D01*
X154969047Y-124997619D01*
X154969047Y-125492857D01*
X154350000Y-123511904D02*
X154288095Y-123635714D01*
X154288095Y-123821428D01*
X154350000Y-124007142D01*
X154473809Y-124130952D01*
X154597619Y-124192857D01*
X154845238Y-124254761D01*
X155030952Y-124254761D01*
X155278571Y-124192857D01*
X155402380Y-124130952D01*
X155526190Y-124007142D01*
X155588095Y-123821428D01*
X155588095Y-123697619D01*
X155526190Y-123511904D01*
X155464285Y-123450000D01*
X155030952Y-123450000D01*
X155030952Y-123697619D01*
X155588095Y-122892857D02*
X154288095Y-122892857D01*
X155588095Y-122273809D02*
X154288095Y-122273809D01*
X155588095Y-121530952D01*
X154288095Y-121530952D01*
X154350000Y-120230952D02*
X154288095Y-120354761D01*
X154288095Y-120540476D01*
X154350000Y-120726190D01*
X154473809Y-120850000D01*
X154597619Y-120911904D01*
X154845238Y-120973809D01*
X155030952Y-120973809D01*
X155278571Y-120911904D01*
X155402380Y-120850000D01*
X155526190Y-120726190D01*
X155588095Y-120540476D01*
X155588095Y-120416666D01*
X155526190Y-120230952D01*
X155464285Y-120169047D01*
X155030952Y-120169047D01*
X155030952Y-120416666D01*
D15*
%TO.C,J3*%
X155220000Y-140157071D02*
X155220000Y-139760000D01*
X154460000Y-140157071D02*
X154460000Y-139760000D01*
X153570000Y-139760000D02*
X153570000Y-137100000D01*
X152680000Y-140090000D02*
X152680000Y-139760000D01*
X151920000Y-140090000D02*
X151920000Y-139760000D01*
X150970000Y-137100000D02*
X150970000Y-139760000D01*
X156170000Y-137100000D02*
X150970000Y-137100000D01*
X156170000Y-139760000D02*
X156170000Y-137100000D01*
X150970000Y-139760000D02*
X156170000Y-139760000D01*
%TO.C,C1*%
X152296078Y-114990000D02*
X151778922Y-114990000D01*
X152296078Y-116410000D02*
X151778922Y-116410000D01*
%TO.C,C2*%
X152196078Y-127790000D02*
X151678922Y-127790000D01*
X152196078Y-129210000D02*
X151678922Y-129210000D01*
%TO.C,D1*%
X153062500Y-116790000D02*
X150377500Y-116790000D01*
X150377500Y-116790000D02*
X150377500Y-118710000D01*
X150377500Y-118710000D02*
X153062500Y-118710000D01*
%TO.C,R1*%
X152296078Y-122460000D02*
X151778922Y-122460000D01*
X152296078Y-121040000D02*
X151778922Y-121040000D01*
%TO.C,R2*%
X152321078Y-119040000D02*
X151803922Y-119040000D01*
X152321078Y-120460000D02*
X151803922Y-120460000D01*
%TO.C,U1*%
X151200000Y-126310000D02*
X153000000Y-126310000D01*
X153000000Y-123090000D02*
X150550000Y-123090000D01*
%TO.C,J1*%
X152425000Y-111700000D02*
X151675000Y-111700000D01*
X151675000Y-111700000D02*
X151675000Y-111100000D01*
X151675000Y-112000000D02*
X151675000Y-114150000D01*
X151675000Y-105850000D02*
X155225000Y-105850000D01*
X155225000Y-114150000D02*
X155225000Y-111250000D01*
X151675000Y-114150000D02*
X155225000Y-114150000D01*
X155225000Y-105850000D02*
X155225000Y-108750000D01*
X151675000Y-108000000D02*
X151675000Y-105850000D01*
%TO.C,J2*%
X155460000Y-142610000D02*
X155460000Y-143825000D01*
X155400000Y-138650000D02*
X155400000Y-136390000D01*
X154900000Y-138650000D02*
X154900000Y-136390000D01*
X152300000Y-140250000D02*
X151300000Y-140250000D01*
X152300000Y-138650000D02*
X152300000Y-140250000D01*
X151300000Y-138650000D02*
X152300000Y-138650000D01*
X151300000Y-140250000D02*
X151300000Y-138650000D01*
X154900000Y-140250000D02*
X155900000Y-140250000D01*
X154900000Y-138650000D02*
X154900000Y-140250000D01*
X155900000Y-138650000D02*
X154900000Y-138650000D01*
X155900000Y-140250000D02*
X155900000Y-138650000D01*
X150540000Y-142610000D02*
X151460000Y-142610000D01*
X156660000Y-142610000D02*
X155740000Y-142610000D01*
X153100000Y-140750000D02*
X153100000Y-136390000D01*
X154100000Y-140750000D02*
X153100000Y-140750000D01*
X154100000Y-136390000D02*
X154100000Y-140750000D01*
X151460000Y-142610000D02*
X151740000Y-142610000D01*
X151460000Y-144210000D02*
X151460000Y-142610000D01*
X150540000Y-144210000D02*
X151460000Y-144210000D01*
X150540000Y-136390000D02*
X150540000Y-144210000D01*
X156660000Y-136390000D02*
X150540000Y-136390000D01*
X156660000Y-144210000D02*
X156660000Y-136390000D01*
X155740000Y-144210000D02*
X156660000Y-144210000D01*
X155740000Y-142610000D02*
X155740000Y-144210000D01*
X155460000Y-142610000D02*
X155740000Y-142610000D01*
%TO.C,TP1*%
X149450000Y-111250000D02*
G75*
G03*
X149450000Y-111250000I-950000J0D01*
G01*
%TO.C,TP2*%
X149450000Y-108750000D02*
G75*
G03*
X149450000Y-108750000I-950000J0D01*
G01*
%TO.C,C1*%
D10*
X148833333Y-116107142D02*
X148785714Y-116154761D01*
X148642857Y-116202380D01*
X148547619Y-116202380D01*
X148404761Y-116154761D01*
X148309523Y-116059523D01*
X148261904Y-115964285D01*
X148214285Y-115773809D01*
X148214285Y-115630952D01*
X148261904Y-115440476D01*
X148309523Y-115345238D01*
X148404761Y-115250000D01*
X148547619Y-115202380D01*
X148642857Y-115202380D01*
X148785714Y-115250000D01*
X148833333Y-115297619D01*
X149785714Y-116202380D02*
X149214285Y-116202380D01*
X149500000Y-116202380D02*
X149500000Y-115202380D01*
X149404761Y-115345238D01*
X149309523Y-115440476D01*
X149214285Y-115488095D01*
%TO.C,C2*%
X148833333Y-128857142D02*
X148785714Y-128904761D01*
X148642857Y-128952380D01*
X148547619Y-128952380D01*
X148404761Y-128904761D01*
X148309523Y-128809523D01*
X148261904Y-128714285D01*
X148214285Y-128523809D01*
X148214285Y-128380952D01*
X148261904Y-128190476D01*
X148309523Y-128095238D01*
X148404761Y-128000000D01*
X148547619Y-127952380D01*
X148642857Y-127952380D01*
X148785714Y-128000000D01*
X148833333Y-128047619D01*
X149214285Y-128047619D02*
X149261904Y-128000000D01*
X149357142Y-127952380D01*
X149595238Y-127952380D01*
X149690476Y-128000000D01*
X149738095Y-128047619D01*
X149785714Y-128142857D01*
X149785714Y-128238095D01*
X149738095Y-128380952D01*
X149166666Y-128952380D01*
X149785714Y-128952380D01*
%TO.C,D1*%
X148261904Y-118202380D02*
X148261904Y-117202380D01*
X148500000Y-117202380D01*
X148642857Y-117250000D01*
X148738095Y-117345238D01*
X148785714Y-117440476D01*
X148833333Y-117630952D01*
X148833333Y-117773809D01*
X148785714Y-117964285D01*
X148738095Y-118059523D01*
X148642857Y-118154761D01*
X148500000Y-118202380D01*
X148261904Y-118202380D01*
X149785714Y-118202380D02*
X149214285Y-118202380D01*
X149500000Y-118202380D02*
X149500000Y-117202380D01*
X149404761Y-117345238D01*
X149309523Y-117440476D01*
X149214285Y-117488095D01*
%TO.C,R1*%
X148833333Y-122202380D02*
X148500000Y-121726190D01*
X148261904Y-122202380D02*
X148261904Y-121202380D01*
X148642857Y-121202380D01*
X148738095Y-121250000D01*
X148785714Y-121297619D01*
X148833333Y-121392857D01*
X148833333Y-121535714D01*
X148785714Y-121630952D01*
X148738095Y-121678571D01*
X148642857Y-121726190D01*
X148261904Y-121726190D01*
X149785714Y-122202380D02*
X149214285Y-122202380D01*
X149500000Y-122202380D02*
X149500000Y-121202380D01*
X149404761Y-121345238D01*
X149309523Y-121440476D01*
X149214285Y-121488095D01*
%TO.C,R2*%
X148833333Y-120202380D02*
X148500000Y-119726190D01*
X148261904Y-120202380D02*
X148261904Y-119202380D01*
X148642857Y-119202380D01*
X148738095Y-119250000D01*
X148785714Y-119297619D01*
X148833333Y-119392857D01*
X148833333Y-119535714D01*
X148785714Y-119630952D01*
X148738095Y-119678571D01*
X148642857Y-119726190D01*
X148261904Y-119726190D01*
X149214285Y-119297619D02*
X149261904Y-119250000D01*
X149357142Y-119202380D01*
X149595238Y-119202380D01*
X149690476Y-119250000D01*
X149738095Y-119297619D01*
X149785714Y-119392857D01*
X149785714Y-119488095D01*
X149738095Y-119630952D01*
X149166666Y-120202380D01*
X149785714Y-120202380D01*
%TO.C,U1*%
X148238095Y-124202380D02*
X148238095Y-125011904D01*
X148285714Y-125107142D01*
X148333333Y-125154761D01*
X148428571Y-125202380D01*
X148619047Y-125202380D01*
X148714285Y-125154761D01*
X148761904Y-125107142D01*
X148809523Y-125011904D01*
X148809523Y-124202380D01*
X149809523Y-125202380D02*
X149238095Y-125202380D01*
X149523809Y-125202380D02*
X149523809Y-124202380D01*
X149428571Y-124345238D01*
X149333333Y-124440476D01*
X149238095Y-124488095D01*
%TO.C,J1*%
D11*
X155678571Y-113500000D02*
X156750000Y-113500000D01*
X156964285Y-113571428D01*
X157107142Y-113714285D01*
X157178571Y-113928571D01*
X157178571Y-114071428D01*
X157178571Y-112000000D02*
X157178571Y-112857142D01*
X157178571Y-112428571D02*
X155678571Y-112428571D01*
X155892857Y-112571428D01*
X156035714Y-112714285D01*
X156107142Y-112857142D01*
%TO.C,J2*%
X157428571Y-142500000D02*
X158500000Y-142500000D01*
X158714285Y-142571428D01*
X158857142Y-142714285D01*
X158928571Y-142928571D01*
X158928571Y-143071428D01*
X157571428Y-141857142D02*
X157500000Y-141785714D01*
X157428571Y-141642857D01*
X157428571Y-141285714D01*
X157500000Y-141142857D01*
X157571428Y-141071428D01*
X157714285Y-141000000D01*
X157857142Y-141000000D01*
X158071428Y-141071428D01*
X158928571Y-141928571D01*
X158928571Y-141000000D01*
%TO.C,TP1*%
D10*
X147238095Y-112452380D02*
X147809523Y-112452380D01*
X147523809Y-113452380D02*
X147523809Y-112452380D01*
X148142857Y-113452380D02*
X148142857Y-112452380D01*
X148523809Y-112452380D01*
X148619047Y-112500000D01*
X148666666Y-112547619D01*
X148714285Y-112642857D01*
X148714285Y-112785714D01*
X148666666Y-112880952D01*
X148619047Y-112928571D01*
X148523809Y-112976190D01*
X148142857Y-112976190D01*
X149666666Y-113452380D02*
X149095238Y-113452380D01*
X149380952Y-113452380D02*
X149380952Y-112452380D01*
X149285714Y-112595238D01*
X149190476Y-112690476D01*
X149095238Y-112738095D01*
%TO.C,TP2*%
X147238095Y-106554380D02*
X147809523Y-106554380D01*
X147523809Y-107554380D02*
X147523809Y-106554380D01*
X148142857Y-107554380D02*
X148142857Y-106554380D01*
X148523809Y-106554380D01*
X148619047Y-106602000D01*
X148666666Y-106649619D01*
X148714285Y-106744857D01*
X148714285Y-106887714D01*
X148666666Y-106982952D01*
X148619047Y-107030571D01*
X148523809Y-107078190D01*
X148142857Y-107078190D01*
X149095238Y-106649619D02*
X149142857Y-106602000D01*
X149238095Y-106554380D01*
X149476190Y-106554380D01*
X149571428Y-106602000D01*
X149619047Y-106649619D01*
X149666666Y-106744857D01*
X149666666Y-106840095D01*
X149619047Y-106982952D01*
X149047619Y-107554380D01*
X149666666Y-107554380D01*
%TD*%
M02*
