%TF.GenerationSoftware,KiCad,Pcbnew,(5.1.6)-1*%
%TF.CreationDate,2020-12-02T11:33:46-05:00*%
%TF.ProjectId,HP_classic,48505f63-6c61-4737-9369-632e6b696361,2*%
%TF.SameCoordinates,Original*%
%TF.FileFunction,Soldermask,Bot*%
%TF.FilePolarity,Negative*%
%FSLAX46Y46*%
G04 Gerber Fmt 4.6, Leading zero omitted, Abs format (unit mm)*
G04 Created by KiCad (PCBNEW (5.1.6)-1) date 2020-12-02 11:33:46*
%MOMM*%
%LPD*%
G01*
G04 APERTURE LIST*
%ADD10C,0.100000*%
%ADD11R,1.300000X1.300000*%
%ADD12R,1.400000X0.750000*%
%ADD13R,1.800000X1.800000*%
%ADD14O,1.800000X1.800000*%
%ADD15O,1.200000X1.900000*%
%ADD16O,1.200000X2.300000*%
%ADD17O,1.300000X1.850000*%
%ADD18C,2.100000*%
G04 APERTURE END LIST*
D10*
G36*
X172000000Y-137000000D02*
G01*
X152000000Y-137000000D01*
X152000000Y-128000000D01*
X172000000Y-128000000D01*
X172000000Y-137000000D01*
G37*
X172000000Y-137000000D02*
X152000000Y-137000000D01*
X152000000Y-128000000D01*
X172000000Y-128000000D01*
X172000000Y-137000000D01*
G36*
X153500000Y-114250000D02*
G01*
X155750000Y-114250000D01*
X156000000Y-113000000D01*
X172000000Y-113000000D01*
X172000000Y-122000000D01*
X152000000Y-122000000D01*
X152000000Y-113000000D01*
X153250000Y-113000000D01*
X153500000Y-114250000D01*
G37*
X153500000Y-114250000D02*
X155750000Y-114250000D01*
X156000000Y-113000000D01*
X172000000Y-113000000D01*
X172000000Y-122000000D01*
X152000000Y-122000000D01*
X152000000Y-113000000D01*
X153250000Y-113000000D01*
X153500000Y-114250000D01*
D11*
%TO.C,Z1*%
X160750000Y-126650000D03*
X160750000Y-123350000D03*
%TD*%
D12*
%TO.C,U2*%
X157300000Y-124950000D03*
X157300000Y-123050000D03*
X155100000Y-123050000D03*
X155100000Y-124000000D03*
X155100000Y-124950000D03*
%TD*%
D13*
%TO.C,J3*%
X152300000Y-141200000D03*
D14*
X154840000Y-141200000D03*
%TD*%
D15*
%TO.C,J1*%
X154575000Y-107200000D03*
X154575000Y-112800000D03*
D16*
X152425000Y-110000000D03*
%TD*%
%TO.C,J2*%
G36*
G01*
X155250000Y-142095832D02*
X155250000Y-143404168D01*
G75*
G02*
X154979168Y-143675000I-270832J0D01*
G01*
X154220832Y-143675000D01*
G75*
G02*
X153950000Y-143404168I0J270832D01*
G01*
X153950000Y-142095832D01*
G75*
G02*
X154220832Y-141825000I270832J0D01*
G01*
X154979168Y-141825000D01*
G75*
G02*
X155250000Y-142095832I0J-270832D01*
G01*
G37*
D17*
X152600000Y-142750000D03*
%TD*%
D18*
%TO.C,H1*%
X189000000Y-108000000D03*
%TD*%
%TO.C,H2*%
X169000000Y-108000000D03*
%TD*%
%TO.C,H3*%
X189000000Y-142000000D03*
%TD*%
%TO.C,H4*%
X169000000Y-142000000D03*
%TD*%
D10*
%TO.C,JP1*%
G36*
X159109755Y-138000961D02*
G01*
X159119134Y-138003806D01*
X159127779Y-138008427D01*
X159135355Y-138014645D01*
X159141573Y-138022221D01*
X159146194Y-138030866D01*
X159149039Y-138040245D01*
X159150000Y-138050000D01*
X159150000Y-139550000D01*
X159149039Y-139559755D01*
X159146194Y-139569134D01*
X159141573Y-139577779D01*
X159135355Y-139585355D01*
X159127779Y-139591573D01*
X159119134Y-139596194D01*
X159109755Y-139599039D01*
X159100000Y-139600000D01*
X158600000Y-139600000D01*
X158593889Y-139599398D01*
X158575466Y-139599398D01*
X158570565Y-139599157D01*
X158521734Y-139594347D01*
X158516881Y-139593627D01*
X158468756Y-139584055D01*
X158463995Y-139582863D01*
X158417040Y-139568619D01*
X158412421Y-139566966D01*
X158367088Y-139548189D01*
X158362651Y-139546091D01*
X158319378Y-139522960D01*
X158315171Y-139520438D01*
X158274372Y-139493178D01*
X158270430Y-139490254D01*
X158232501Y-139459126D01*
X158228866Y-139455831D01*
X158194169Y-139421134D01*
X158190874Y-139417499D01*
X158159746Y-139379570D01*
X158156822Y-139375628D01*
X158129562Y-139334829D01*
X158127040Y-139330622D01*
X158103909Y-139287349D01*
X158101811Y-139282912D01*
X158083034Y-139237579D01*
X158081381Y-139232960D01*
X158067137Y-139186005D01*
X158065945Y-139181244D01*
X158056373Y-139133119D01*
X158055653Y-139128266D01*
X158050843Y-139079435D01*
X158050602Y-139074534D01*
X158050602Y-139056111D01*
X158050000Y-139050000D01*
X158050000Y-138550000D01*
X158050602Y-138543889D01*
X158050602Y-138525466D01*
X158050843Y-138520565D01*
X158055653Y-138471734D01*
X158056373Y-138466881D01*
X158065945Y-138418756D01*
X158067137Y-138413995D01*
X158081381Y-138367040D01*
X158083034Y-138362421D01*
X158101811Y-138317088D01*
X158103909Y-138312651D01*
X158127040Y-138269378D01*
X158129562Y-138265171D01*
X158156822Y-138224372D01*
X158159746Y-138220430D01*
X158190874Y-138182501D01*
X158194169Y-138178866D01*
X158228866Y-138144169D01*
X158232501Y-138140874D01*
X158270430Y-138109746D01*
X158274372Y-138106822D01*
X158315171Y-138079562D01*
X158319378Y-138077040D01*
X158362651Y-138053909D01*
X158367088Y-138051811D01*
X158412421Y-138033034D01*
X158417040Y-138031381D01*
X158463995Y-138017137D01*
X158468756Y-138015945D01*
X158516881Y-138006373D01*
X158521734Y-138005653D01*
X158570565Y-138000843D01*
X158575466Y-138000602D01*
X158593889Y-138000602D01*
X158600000Y-138000000D01*
X159100000Y-138000000D01*
X159109755Y-138000961D01*
G37*
G36*
X159906111Y-138000602D02*
G01*
X159924534Y-138000602D01*
X159929435Y-138000843D01*
X159978266Y-138005653D01*
X159983119Y-138006373D01*
X160031244Y-138015945D01*
X160036005Y-138017137D01*
X160082960Y-138031381D01*
X160087579Y-138033034D01*
X160132912Y-138051811D01*
X160137349Y-138053909D01*
X160180622Y-138077040D01*
X160184829Y-138079562D01*
X160225628Y-138106822D01*
X160229570Y-138109746D01*
X160267499Y-138140874D01*
X160271134Y-138144169D01*
X160305831Y-138178866D01*
X160309126Y-138182501D01*
X160340254Y-138220430D01*
X160343178Y-138224372D01*
X160370438Y-138265171D01*
X160372960Y-138269378D01*
X160396091Y-138312651D01*
X160398189Y-138317088D01*
X160416966Y-138362421D01*
X160418619Y-138367040D01*
X160432863Y-138413995D01*
X160434055Y-138418756D01*
X160443627Y-138466881D01*
X160444347Y-138471734D01*
X160449157Y-138520565D01*
X160449398Y-138525466D01*
X160449398Y-138543889D01*
X160450000Y-138550000D01*
X160450000Y-139050000D01*
X160449398Y-139056111D01*
X160449398Y-139074534D01*
X160449157Y-139079435D01*
X160444347Y-139128266D01*
X160443627Y-139133119D01*
X160434055Y-139181244D01*
X160432863Y-139186005D01*
X160418619Y-139232960D01*
X160416966Y-139237579D01*
X160398189Y-139282912D01*
X160396091Y-139287349D01*
X160372960Y-139330622D01*
X160370438Y-139334829D01*
X160343178Y-139375628D01*
X160340254Y-139379570D01*
X160309126Y-139417499D01*
X160305831Y-139421134D01*
X160271134Y-139455831D01*
X160267499Y-139459126D01*
X160229570Y-139490254D01*
X160225628Y-139493178D01*
X160184829Y-139520438D01*
X160180622Y-139522960D01*
X160137349Y-139546091D01*
X160132912Y-139548189D01*
X160087579Y-139566966D01*
X160082960Y-139568619D01*
X160036005Y-139582863D01*
X160031244Y-139584055D01*
X159983119Y-139593627D01*
X159978266Y-139594347D01*
X159929435Y-139599157D01*
X159924534Y-139599398D01*
X159906111Y-139599398D01*
X159900000Y-139600000D01*
X159400000Y-139600000D01*
X159390245Y-139599039D01*
X159380866Y-139596194D01*
X159372221Y-139591573D01*
X159364645Y-139585355D01*
X159358427Y-139577779D01*
X159353806Y-139569134D01*
X159350961Y-139559755D01*
X159350000Y-139550000D01*
X159350000Y-138050000D01*
X159350961Y-138040245D01*
X159353806Y-138030866D01*
X159358427Y-138022221D01*
X159364645Y-138014645D01*
X159372221Y-138008427D01*
X159380866Y-138003806D01*
X159390245Y-138000961D01*
X159400000Y-138000000D01*
X159900000Y-138000000D01*
X159906111Y-138000602D01*
G37*
%TD*%
%TO.C,JP2*%
G36*
X151900602Y-124093889D02*
G01*
X151900602Y-124075466D01*
X151900843Y-124070565D01*
X151905653Y-124021734D01*
X151906373Y-124016881D01*
X151915945Y-123968756D01*
X151917137Y-123963995D01*
X151931381Y-123917040D01*
X151933034Y-123912421D01*
X151951811Y-123867088D01*
X151953909Y-123862651D01*
X151977040Y-123819378D01*
X151979562Y-123815171D01*
X152006822Y-123774372D01*
X152009746Y-123770430D01*
X152040874Y-123732501D01*
X152044169Y-123728866D01*
X152078866Y-123694169D01*
X152082501Y-123690874D01*
X152120430Y-123659746D01*
X152124372Y-123656822D01*
X152165171Y-123629562D01*
X152169378Y-123627040D01*
X152212651Y-123603909D01*
X152217088Y-123601811D01*
X152262421Y-123583034D01*
X152267040Y-123581381D01*
X152313995Y-123567137D01*
X152318756Y-123565945D01*
X152366881Y-123556373D01*
X152371734Y-123555653D01*
X152420565Y-123550843D01*
X152425466Y-123550602D01*
X152443889Y-123550602D01*
X152450000Y-123550000D01*
X152950000Y-123550000D01*
X152956111Y-123550602D01*
X152974534Y-123550602D01*
X152979435Y-123550843D01*
X153028266Y-123555653D01*
X153033119Y-123556373D01*
X153081244Y-123565945D01*
X153086005Y-123567137D01*
X153132960Y-123581381D01*
X153137579Y-123583034D01*
X153182912Y-123601811D01*
X153187349Y-123603909D01*
X153230622Y-123627040D01*
X153234829Y-123629562D01*
X153275628Y-123656822D01*
X153279570Y-123659746D01*
X153317499Y-123690874D01*
X153321134Y-123694169D01*
X153355831Y-123728866D01*
X153359126Y-123732501D01*
X153390254Y-123770430D01*
X153393178Y-123774372D01*
X153420438Y-123815171D01*
X153422960Y-123819378D01*
X153446091Y-123862651D01*
X153448189Y-123867088D01*
X153466966Y-123912421D01*
X153468619Y-123917040D01*
X153482863Y-123963995D01*
X153484055Y-123968756D01*
X153493627Y-124016881D01*
X153494347Y-124021734D01*
X153499157Y-124070565D01*
X153499398Y-124075466D01*
X153499398Y-124093889D01*
X153500000Y-124100000D01*
X153500000Y-124600000D01*
X153499039Y-124609755D01*
X153496194Y-124619134D01*
X153491573Y-124627779D01*
X153485355Y-124635355D01*
X153477779Y-124641573D01*
X153469134Y-124646194D01*
X153459755Y-124649039D01*
X153450000Y-124650000D01*
X151950000Y-124650000D01*
X151940245Y-124649039D01*
X151930866Y-124646194D01*
X151922221Y-124641573D01*
X151914645Y-124635355D01*
X151908427Y-124627779D01*
X151903806Y-124619134D01*
X151900961Y-124609755D01*
X151900000Y-124600000D01*
X151900000Y-124100000D01*
X151900602Y-124093889D01*
G37*
G36*
X151900961Y-124890245D02*
G01*
X151903806Y-124880866D01*
X151908427Y-124872221D01*
X151914645Y-124864645D01*
X151922221Y-124858427D01*
X151930866Y-124853806D01*
X151940245Y-124850961D01*
X151950000Y-124850000D01*
X153450000Y-124850000D01*
X153459755Y-124850961D01*
X153469134Y-124853806D01*
X153477779Y-124858427D01*
X153485355Y-124864645D01*
X153491573Y-124872221D01*
X153496194Y-124880866D01*
X153499039Y-124890245D01*
X153500000Y-124900000D01*
X153500000Y-125400000D01*
X153499398Y-125406111D01*
X153499398Y-125424534D01*
X153499157Y-125429435D01*
X153494347Y-125478266D01*
X153493627Y-125483119D01*
X153484055Y-125531244D01*
X153482863Y-125536005D01*
X153468619Y-125582960D01*
X153466966Y-125587579D01*
X153448189Y-125632912D01*
X153446091Y-125637349D01*
X153422960Y-125680622D01*
X153420438Y-125684829D01*
X153393178Y-125725628D01*
X153390254Y-125729570D01*
X153359126Y-125767499D01*
X153355831Y-125771134D01*
X153321134Y-125805831D01*
X153317499Y-125809126D01*
X153279570Y-125840254D01*
X153275628Y-125843178D01*
X153234829Y-125870438D01*
X153230622Y-125872960D01*
X153187349Y-125896091D01*
X153182912Y-125898189D01*
X153137579Y-125916966D01*
X153132960Y-125918619D01*
X153086005Y-125932863D01*
X153081244Y-125934055D01*
X153033119Y-125943627D01*
X153028266Y-125944347D01*
X152979435Y-125949157D01*
X152974534Y-125949398D01*
X152956111Y-125949398D01*
X152950000Y-125950000D01*
X152450000Y-125950000D01*
X152443889Y-125949398D01*
X152425466Y-125949398D01*
X152420565Y-125949157D01*
X152371734Y-125944347D01*
X152366881Y-125943627D01*
X152318756Y-125934055D01*
X152313995Y-125932863D01*
X152267040Y-125918619D01*
X152262421Y-125916966D01*
X152217088Y-125898189D01*
X152212651Y-125896091D01*
X152169378Y-125872960D01*
X152165171Y-125870438D01*
X152124372Y-125843178D01*
X152120430Y-125840254D01*
X152082501Y-125809126D01*
X152078866Y-125805831D01*
X152044169Y-125771134D01*
X152040874Y-125767499D01*
X152009746Y-125729570D01*
X152006822Y-125725628D01*
X151979562Y-125684829D01*
X151977040Y-125680622D01*
X151953909Y-125637349D01*
X151951811Y-125632912D01*
X151933034Y-125587579D01*
X151931381Y-125582960D01*
X151917137Y-125536005D01*
X151915945Y-125531244D01*
X151906373Y-125483119D01*
X151905653Y-125478266D01*
X151900843Y-125429435D01*
X151900602Y-125424534D01*
X151900602Y-125406111D01*
X151900000Y-125400000D01*
X151900000Y-124900000D01*
X151900961Y-124890245D01*
G37*
%TD*%
M02*
