<?xml version="1.0" encoding="UTF-8" standalone="no"?>
<!DOCTYPE svg PUBLIC "-//W3C//DTD SVG 1.1//EN" "http://www.w3.org/Graphics/SVG/1.1/DTD/svg11.dtd">
<!-- Generated by Microsoft Visio, SVG Export 20201103_Classic_HP_mechanical.svg Page-1 -->
<svg xmlns="http://www.w3.org/2000/svg" xmlns:xlink="http://www.w3.org/1999/xlink" xmlns:ev="http://www.w3.org/2001/xml-events"
		xmlns:v="http://schemas.microsoft.com/visio/2003/SVGExtensions/" width="8.26772in" height="11.6929in"
		viewBox="0 0 595.276 841.89" xml:space="preserve" color-interpolation-filters="sRGB" class="st2">
	<v:documentProperties v:langID="1033" v:metric="true" v:viewMarkup="false">
		<v:userDefs>
			<v:ud v:nameU="msvNoAutoConnect" v:val="VT0(1):26"/>
		</v:userDefs>
	</v:documentProperties>

	<style type="text/css">
	<![CDATA[
		.st1 {fill:#ffffff;stroke:#000000;stroke-linecap:round;stroke-linejoin:round;stroke-width:0.75}
		.st2 {fill:none;fill-rule:evenodd;font-size:12px;overflow:visible;stroke-linecap:square;stroke-miterlimit:3}
	]]>
	</style>

	<g v:mID="0" v:index="1" v:groupContext="foregroundPage">
		<title>Page-1</title>
		<v:pageProperties v:drawingScale="0.0393701" v:pageScale="0.19685" v:drawingUnits="24" v:shadowOffsetX="8.50394"
				v:shadowOffsetY="-8.50394"/>
		<g id="shape114-1" v:mID="114" v:groupContext="shape" transform="translate(-463.039,749.764) rotate(-90)">
			<title>Sheet.114</title>
			<path d="M42.52 708.3 L42.52 685.98 L623.62 685.98 L623.62 708.3 L42.52 708.3 ZM191.34 643.46 L49.61 643.46 A99.2126
						 49.6063 -90 0 0 -0 742.68 A99.2126 49.6063 -90 0 0 49.61 841.89 L616.54 841.89 A99.2126 49.6063 -90 0 0
						 666.14 742.68 A99.2126 49.6063 -90 0 0 616.54 643.46 L474.8 643.46 L446.46 671.81 L418.11 643.46 L248.03
						 643.46 L219.69 671.81 L191.34 643.46 Z" class="st1"/>
		</g>
	</g>
</svg>
